<?xml version="1.0" encoding="UTF-8"?>
<!DOCTYPE svg PUBLIC "-//W3C//DTD SVG 1.1//EN" "http://www.w3.org/Graphics/SVG/1.1/DTD/svg11.dtd">
<!-- Creator: CorelDRAW X8 -->
<svg xmlns="http://www.w3.org/2000/svg" xml:space="preserve" width="297mm" height="210mm" version="1.1" style="shape-rendering:geometricPrecision; text-rendering:geometricPrecision; image-rendering:optimizeQuality; fill-rule:evenodd; clip-rule:evenodd"
viewBox="0 0 29700 21000"
 xmlns:xlink="http://www.w3.org/1999/xlink">
 <defs>
  <style type="text/css">
   <![CDATA[
    .fil3 {fill:url(#id15)}
    .fil24 {fill:url(#id16)}
    .fil13 {fill:url(#id17)}
    .fil11 {fill:url(#id18)}
    .fil6 {fill:url(#id19)}
    .fil9 {fill:url(#id20)}
    .fil7 {fill:url(#id21)}
    .fil12 {fill:url(#id22)}
    .fil2 {fill:url(#id23)}
    .fil21 {fill:url(#id24)}
    .fil16 {fill:url(#id25)}
    .fil19 {fill:url(#id26)}
    .fil20 {fill:url(#id27)}
    .fil10 {fill:url(#id28)}
    .fil18 {fill:url(#id29)}
    .fil17 {fill:url(#id30)}
    .fil8 {fill:url(#id31)}
    .fil22 {fill:url(#id32)}
    .fil14 {fill:url(#id33)}
    .fil1 {fill:url(#id34)}
    .fil4 {fill:url(#id35)}
    .fil25 {fill:url(#id36)}
    .fil5 {fill:url(#id37)}
    .fil15 {fill:url(#id38)}
    .fil23 {fill:url(#id39)}
    .fil0 {fill:url(#id40)}
   ]]>
  </style>
    <clipPath id="id0">
     <path d="M3740 7212l-77 -41 -77 41 14 -86 -62 -62 86 -12 39 -79 38 79 87 12 -63 62 15 86 0 0z"/>
    </clipPath>
    <clipPath id="id1">
     <path d="M8836 7093l-77 -41 -78 41 15 -87 -63 -61 87 -12 39 -79 38 79 87 12 -63 61 15 87 0 0z"/>
    </clipPath>
    <clipPath id="id2">
     <path d="M12654 9723l-77 -40 -78 40 15 -86 -62 -61 86 -13 39 -78 38 78 87 13 -63 61 15 86 0 0z"/>
    </clipPath>
    <clipPath id="id3">
     <path d="M6728 2544l-77 -41 -78 41 15 -87 -63 -61 87 -12 39 -79 38 79 87 12 -63 61 15 87 0 0z"/>
    </clipPath>
    <clipPath id="id4">
     <path d="M25816 872l-77 -41 -78 41 15 -87 -62 -61 86 -12 39 -79 38 79 87 12 -63 61 15 87 0 0z"/>
    </clipPath>
    <clipPath id="id5">
     <path d="M2199 872l-77 -41 -78 41 15 -87 -62 -61 86 -12 39 -79 38 79 87 12 -62 61 14 87 0 0z"/>
    </clipPath>
    <clipPath id="id6">
     <path d="M19575 10656l-77 -41 -77 41 14 -86 -62 -61 86 -13 39 -78 38 78 87 13 -62 61 14 86 0 0z"/>
    </clipPath>
    <clipPath id="id7">
     <path d="M14769 11243l-77 -41 -78 41 15 -86 -63 -61 87 -13 39 -78 38 78 87 13 -63 61 15 86 0 0z"/>
    </clipPath>
    <clipPath id="id8">
     <path d="M983 12798l-78 -41 -77 41 15 -86 -63 -61 87 -13 38 -78 39 78 86 13 -62 61 15 86 0 0z"/>
    </clipPath>
    <clipPath id="id9">
     <path d="M23724 7212l-77 -41 -78 41 15 -86 -63 -62 87 -12 39 -79 38 79 87 12 -63 62 15 86 0 0z"/>
    </clipPath>
    <clipPath id="id10">
     <path d="M24357 10894l-77 -40 -78 40 15 -86 -63 -61 87 -13 39 -78 38 78 87 13 -63 61 15 86 0 0z"/>
    </clipPath>
    <clipPath id="id11">
     <path d="M27864 8561l-77 -41 -78 41 15 -86 -62 -61 86 -13 39 -79 38 79 87 13 -63 61 15 86 0 0z"/>
    </clipPath>
    <clipPath id="id12">
     <path d="M16962 12559l-78 -40 -77 40 15 -86 -63 -61 87 -12 38 -79 39 79 86 12 -62 61 15 86 0 0z"/>
    </clipPath>
    <clipPath id="id13">
     <path d="M27989 4009l-77 -41 -77 41 14 -86 -62 -61 86 -13 39 -78 39 78 86 13 -62 61 14 86 0 0z"/>
    </clipPath>
    <clipPath id="id14">
     <path d="M3615 3778l-77 -40 -78 40 15 -86 -63 -61 87 -12 39 -79 38 79 87 12 -63 61 15 86 0 0z"/>
    </clipPath>
  <linearGradient id="id15" gradientUnits="userSpaceOnUse" x1="7942.98" y1="9059.57" x2="8193.32" y2="9059.57">
   <stop offset="0" style="stop-opacity:1; stop-color:#F8FAFB"/>
   <stop offset="1" style="stop-opacity:1; stop-color:#E8EDF0"/>
  </linearGradient>
  <linearGradient id="id16" gradientUnits="userSpaceOnUse" x1="14864" y1="17458.6" x2="14864" y2="22688">
   <stop offset="0" style="stop-opacity:1; stop-color:#D7E8F2"/>
   <stop offset="0.631373" style="stop-opacity:1; stop-color:#9AC0D9"/>
   <stop offset="1" style="stop-opacity:1; stop-color:#5D98C0"/>
  </linearGradient>
  <linearGradient id="id17" gradientUnits="userSpaceOnUse" xlink:href="#id15" x1="16294" y1="2033.91" x2="16544.5" y2="2033.91">
  </linearGradient>
  <linearGradient id="id18" gradientUnits="userSpaceOnUse" xlink:href="#id15" x1="20903.2" y1="2543.47" x2="21153.7" y2="2543.47">
  </linearGradient>
  <linearGradient id="id19" gradientUnits="userSpaceOnUse" xlink:href="#id15" x1="12326.3" y1="3889.8" x2="12576.7" y2="3889.8">
  </linearGradient>
  <linearGradient id="id20" gradientUnits="userSpaceOnUse" xlink:href="#id15" x1="12326.3" y1="752.47" x2="12576.7" y2="752.47">
  </linearGradient>
  <linearGradient id="id21" gradientUnits="userSpaceOnUse" xlink:href="#id15" x1="23270.8" y1="3889.8" x2="23521.3" y2="3889.8">
  </linearGradient>
  <linearGradient id="id22" gradientUnits="userSpaceOnUse" xlink:href="#id15" x1="18115.8" y1="1405.65" x2="18366.3" y2="1405.65">
  </linearGradient>
  <linearGradient id="id23" gradientUnits="userSpaceOnUse" xlink:href="#id15" x1="5821.27" y1="11947.8" x2="6071.62" y2="11947.8">
  </linearGradient>
  <linearGradient id="id24" gradientUnits="userSpaceOnUse" x1="21411.8" y1="12181.6" x2="21411.8" y2="16182.2">
   <stop offset="0" style="stop-opacity:1; stop-color:#156996"/>
   <stop offset="1" style="stop-opacity:1; stop-color:#679DBE"/>
  </linearGradient>
  <linearGradient id="id25" gradientUnits="userSpaceOnUse" xlink:href="#id15" x1="11566.5" y1="7917.36" x2="11817" y2="7917.36">
  </linearGradient>
  <linearGradient id="id26" gradientUnits="userSpaceOnUse" xlink:href="#id15" x1="19623.2" y1="7330.8" x2="19873.6" y2="7330.8">
  </linearGradient>
  <linearGradient id="id27" gradientUnits="userSpaceOnUse" x1="8068.32" y1="15325.6" x2="8068.32" y2="12253.7">
   <stop offset="0" style="stop-opacity:1; stop-color:#689ABE"/>
   <stop offset="1" style="stop-opacity:1; stop-color:#156996"/>
  </linearGradient>
  <linearGradient id="id28" gradientUnits="userSpaceOnUse" xlink:href="#id15" x1="22033.8" y1="752.47" x2="22284.2" y2="752.47">
  </linearGradient>
  <linearGradient id="id29" gradientUnits="userSpaceOnUse" xlink:href="#id15" x1="22567.2" y1="14190.7" x2="22817.6" y2="14190.7">
  </linearGradient>
  <linearGradient id="id30" gradientUnits="userSpaceOnUse" xlink:href="#id15" x1="16634" y1="8036.54" x2="16884.5" y2="8036.54">
  </linearGradient>
  <linearGradient id="id31" gradientUnits="userSpaceOnUse" xlink:href="#id15" x1="10188.9" y1="3315.34" x2="10439.3" y2="3315.34">
  </linearGradient>
  <linearGradient id="id32" gradientUnits="userSpaceOnUse" x1="14835.8" y1="13493.8" x2="14835.8" y2="18679.4">
   <stop offset="0" style="stop-opacity:1; stop-color:#C9E2F1"/>
   <stop offset="1" style="stop-opacity:1; stop-color:#0F70A0"/>
  </linearGradient>
  <linearGradient id="id33" gradientUnits="userSpaceOnUse" xlink:href="#id15" x1="10734" y1="2662.8" x2="10984.5" y2="2662.8">
  </linearGradient>
  <linearGradient id="id34" gradientUnits="userSpaceOnUse" x1="14181.2" y1="2033.91" x2="16857.9" y2="2033.91">
   <stop offset="0" style="stop-opacity:1; stop-color:#FEFEFE"/>
   <stop offset="1" style="stop-opacity:1; stop-color:#E8EDF0"/>
  </linearGradient>
  <linearGradient id="id35" gradientUnits="userSpaceOnUse" xlink:href="#id15" x1="11691.8" y1="7211.61" x2="11942.1" y2="7211.61">
  </linearGradient>
  <linearGradient id="id36" gradientUnits="userSpaceOnUse" x1="15010.5" y1="18706.6" x2="14679.8" y2="26358.4">
   <stop offset="0" style="stop-opacity:1; stop-color:#E3F3FD"/>
   <stop offset="1" style="stop-opacity:1; stop-color:#6F9BB7"/>
  </linearGradient>
  <linearGradient id="id37" gradientUnits="userSpaceOnUse" xlink:href="#id15" x1="17124.3" y1="6854.23" x2="17374.7" y2="6854.23">
  </linearGradient>
  <linearGradient id="id38" gradientUnits="userSpaceOnUse" xlink:href="#id15" x1="14738.9" y1="5925.24" x2="14989.4" y2="5925.24">
  </linearGradient>
  <linearGradient id="id39" gradientUnits="userSpaceOnUse" x1="15169.6" y1="16534" x2="14793.4" y2="22231.5">
   <stop offset="0" style="stop-opacity:1; stop-color:#D7E8F2"/>
   <stop offset="1" style="stop-opacity:1; stop-color:#0075A5"/>
  </linearGradient>
  <radialGradient id="id40" gradientUnits="userSpaceOnUse" gradientTransform="matrix(1.23513 1.23566 1.23566 -1.23513 -5191 -16284)" cx="15457.5" cy="1260" r="12165.4" fx="15457.5" fy="1260">
   <stop offset="0" style="stop-opacity:1; stop-color:#D6E7F2"/>
   <stop offset="1" style="stop-opacity:1; stop-color:#0F70A0"/>
  </radialGradient>
 </defs>
 <g id="Katman_x0020_1">
  <metadata id="CorelCorpID_0Corel-Layer"/>
  <g id="_1675841343968">
   <path class="fil0" d="M28 21000l0 -21000 29672 0 0 21000 -29672 0zm877 -8243l78 41 -15 -86 63 -61 -87 -13 -39 -79 -38 79 -87 13 63 61 -15 86 77 -41zm15979 -238l78 40 -15 -86 63 -61 -87 -12 -39 -79 -38 79 -87 12 63 61 -15 86 77 -40zm-2192 -1317l77 41 -15 -86 63 -61 -87 -13 -38 -78 -39 78 -87 13 63 61 -15 86 78 -41zm9588 -348l77 40 -15 -86 63 -61 -87 -13 -38 -78 -39 78 -87 13 63 61 -15 86 78 -40zm-4782 -239l77 41 -14 -86 62 -61 -87 -13 -38 -78 -39 78 -86 13 62 61 -14 86 77 -41zm-6921 -933l77 41 -15 -86 63 -61 -87 -13 -38 -78 -39 78 -86 13 62 61 -15 86 78 -41zm15210 -1162l77 41 -15 -86 63 -61 -87 -13 -38 -78 -39 78 -86 13 62 61 -15 86 78 -41zm-24124 -1349l77 41 -15 -86 63 -62 -86 -12 -39 -79 -39 79 -86 12 62 62 -15 86 78 -41zm19984 0l77 41 -15 -87 63 -61 -87 -12 -38 -79 -39 79 -87 12 63 61 -15 87 78 -41zm-14888 -119l77 41 -15 -87 63 -61 -87 -12 -38 -79 -39 79 -87 12 63 61 -15 87 78 -41zm19153 -3084l77 41 -14 -86 62 -61 -86 -13 -39 -78 -39 78 -86 13 62 61 -14 86 77 -41zm-24374 -230l77 40 -15 -86 63 -61 -87 -13 -38 -78 -39 78 -87 13 63 61 -15 86 78 -40zm3113 -1235l77 41 -15 -87 63 -60 -87 -13 -38 -79 -39 79 -86 13 62 60 -15 87 78 -41zm19088 -1672l77 41 -15 -87 63 -61 -87 -12 -38 -79 -39 79 -86 12 62 61 -15 87 78 -41zm-23617 0l77 41 -14 -87 62 -61 -87 -12 -38 -79 -39 79 -86 12 62 61 -15 87 78 -41 0 0z"/>
   <path class="fil1" d="M15854 3037c-789,0 -1430,-640 -1430,-1430 0,-321 107,-616 285,-855 -322,266 -528,667 -528,1118 0,798 647,1445 1446,1445 521,0 977,-276 1231,-690 -258,254 -612,412 -1004,412z"/>
   <g style="clip-path:url(#id0)">
    <image x="3348" y="6830" width="632" height="548" xlink:href="2504-background-3fae8d10-57ea-4957-bde4-a1526a5e99ea_Images\2504-background-3fae8d10-57ea-4957-bde4-a1526a5e99ea_ImgID1.png"/>
   </g>
   <g style="clip-path:url(#id1)">
    <image x="8477" y="6725" width="528" height="548" xlink:href="2504-background-3fae8d10-57ea-4957-bde4-a1526a5e99ea_Images\2504-background-3fae8d10-57ea-4957-bde4-a1526a5e99ea_ImgID2.png"/>
   </g>
   <polygon class="fil2" points="5947,11829 5985,11907 6072,11920 6009,11981 6024,12067 5947,12026 5869,12067 5884,11981 5821,11920 5908,11907 "/>
   <polygon class="fil3" points="8068,8940 8107,9019 8193,9032 8131,9093 8145,9179 8068,9138 7991,9179 8006,9093 7943,9032 8029,9019 "/>
   <polygon class="fil4" points="11817,7093 11856,7171 11942,7184 11880,7245 11894,7331 11817,7290 11740,7331 11754,7245 11692,7184 11778,7171 "/>
   <g style="clip-path:url(#id2)">
    <image x="12245" y="9342" width="632" height="548" xlink:href="2504-background-3fae8d10-57ea-4957-bde4-a1526a5e99ea_Images\2504-background-3fae8d10-57ea-4957-bde4-a1526a5e99ea_ImgID3.png"/>
   </g>
   <polygon class="fil5" points="17250,6735 17288,6814 17375,6826 17312,6887 17327,6973 17250,6933 17172,6973 17187,6887 17124,6826 17211,6814 "/>
   <polygon class="fil6" points="12452,3771 12490,3849 12577,3862 12514,3923 12529,4009 12452,3968 12374,4009 12389,3923 12326,3862 12413,3849 "/>
   <polygon class="fil7" points="23396,3771 23435,3849 23521,3862 23459,3923 23474,4009 23396,3968 23319,4009 23333,3923 23271,3862 23357,3849 "/>
   <g style="clip-path:url(#id3)">
    <image x="6383" y="2120" width="528" height="548" xlink:href="2504-background-3fae8d10-57ea-4957-bde4-a1526a5e99ea_Images\2504-background-3fae8d10-57ea-4957-bde4-a1526a5e99ea_ImgID4.png"/>
   </g>
   <polygon class="fil8" points="10314,3196 10353,3275 10439,3287 10377,3348 10392,3434 10314,3394 10237,3434 10252,3348 10189,3287 10275,3275 "/>
   <polygon class="fil9" points="12452,633 12490,712 12577,724 12514,785 12529,871 12452,831 12374,871 12389,785 12326,724 12413,712 "/>
   <polygon class="fil10" points="22159,633 22198,712 22284,724 22222,785 22236,872 22159,831 22082,872 22096,785 22034,724 22120,712 "/>
   <polygon class="fil11" points="21028,2424 21067,2503 21154,2515 21091,2577 21106,2663 21028,2622 20951,2663 20966,2577 20903,2515 20990,2503 "/>
   <polygon class="fil12" points="18241,1287 18280,1365 18366,1378 18304,1439 18318,1525 18241,1484 18164,1525 18178,1439 18116,1378 18202,1365 "/>
   <polygon class="fil13" points="16419,1915 16458,1993 16544,2006 16482,2067 16497,2153 16419,2112 16342,2153 16357,2067 16294,2006 16380,1993 "/>
   <polygon class="fil14" points="10859,2544 10898,2622 10984,2635 10922,2696 10937,2782 10859,2741 10782,2782 10797,2696 10734,2635 10821,2622 "/>
   <polygon class="fil15" points="14864,5806 14903,5884 14989,5897 14927,5958 14942,6044 14864,6004 14787,6044 14801,5958 14739,5897 14825,5884 "/>
   <polygon class="fil16" points="11692,7798 11730,7877 11817,7889 11754,7950 11769,8037 11692,7996 11614,8037 11629,7950 11567,7889 11653,7877 "/>
   <g style="clip-path:url(#id4)">
    <image x="25434" y="445" width="632" height="548" xlink:href="2504-background-3fae8d10-57ea-4957-bde4-a1526a5e99ea_Images\2504-background-3fae8d10-57ea-4957-bde4-a1526a5e99ea_ImgID5.png"/>
   </g>
   <g style="clip-path:url(#id5)">
    <image x="1882" y="445" width="528" height="548" xlink:href="2504-background-3fae8d10-57ea-4957-bde4-a1526a5e99ea_Images\2504-background-3fae8d10-57ea-4957-bde4-a1526a5e99ea_ImgID6.png"/>
   </g>
   <g style="clip-path:url(#id6)">
    <image x="19258" y="10284" width="528" height="548" xlink:href="2504-background-3fae8d10-57ea-4957-bde4-a1526a5e99ea_Images\2504-background-3fae8d10-57ea-4957-bde4-a1526a5e99ea_ImgID7.png"/>
   </g>
   <g style="clip-path:url(#id7)">
    <image x="14443" y="10808" width="528" height="548" xlink:href="2504-background-3fae8d10-57ea-4957-bde4-a1526a5e99ea_Images\2504-background-3fae8d10-57ea-4957-bde4-a1526a5e99ea_ImgID8.png"/>
   </g>
   <polygon class="fil17" points="16759,7917 16798,7996 16884,8009 16822,8070 16837,8156 16759,8115 16682,8156 16697,8070 16634,8009 16721,7996 "/>
   <polygon class="fil18" points="22693,14072 22731,14150 22818,14163 22755,14224 22770,14310 22693,14269 22615,14310 22630,14224 22567,14163 22654,14150 "/>
   <g style="clip-path:url(#id8)">
    <image x="626" y="12378" width="528" height="548" xlink:href="2504-background-3fae8d10-57ea-4957-bde4-a1526a5e99ea_Images\2504-background-3fae8d10-57ea-4957-bde4-a1526a5e99ea_ImgID9.png"/>
   </g>
   <g style="clip-path:url(#id9)">
    <image x="23341" y="6830" width="632" height="548" xlink:href="2504-background-3fae8d10-57ea-4957-bde4-a1526a5e99ea_Images\2504-background-3fae8d10-57ea-4957-bde4-a1526a5e99ea_ImgID10.png"/>
   </g>
   <polygon class="fil19" points="19749,7212 19787,7290 19874,7303 19811,7364 19826,7450 19749,7409 19671,7450 19686,7364 19623,7303 19710,7290 "/>
   <g style="clip-path:url(#id10)">
    <image x="23969" y="10494" width="632" height="548" xlink:href="2504-background-3fae8d10-57ea-4957-bde4-a1526a5e99ea_Images\2504-background-3fae8d10-57ea-4957-bde4-a1526a5e99ea_ImgID11.png"/>
   </g>
   <g style="clip-path:url(#id11)">
    <image x="27528" y="8191" width="528" height="548" xlink:href="2504-background-3fae8d10-57ea-4957-bde4-a1526a5e99ea_Images\2504-background-3fae8d10-57ea-4957-bde4-a1526a5e99ea_ImgID12.png"/>
   </g>
   <g style="clip-path:url(#id12)">
    <image x="16641" y="12169" width="528" height="548" xlink:href="2504-background-3fae8d10-57ea-4957-bde4-a1526a5e99ea_Images\2504-background-3fae8d10-57ea-4957-bde4-a1526a5e99ea_ImgID13.png"/>
   </g>
   <g style="clip-path:url(#id13)">
    <image x="27632" y="3585" width="528" height="548" xlink:href="2504-background-3fae8d10-57ea-4957-bde4-a1526a5e99ea_Images\2504-background-3fae8d10-57ea-4957-bde4-a1526a5e99ea_ImgID14.png"/>
   </g>
   <g style="clip-path:url(#id14)">
    <image x="3243" y="3376" width="528" height="548" xlink:href="2504-background-3fae8d10-57ea-4957-bde4-a1526a5e99ea_Images\2504-background-3fae8d10-57ea-4957-bde4-a1526a5e99ea_ImgID15.png"/>
   </g>
   <path class="fil20" d="M8309 13659l0 4 -21 33 6 20 -30 31 2 10c-17,17 -38,34 -64,51l-18 -21c-21,-65 62,-63 43,-86 29,14 40,-28 57,-35l25 -7zm-153 121l12 48 -13 7 -13 -13c26,-7 -1,-35 14,-42zm-46 76l-13 5c3,-24 8,-46 16,-67 15,15 3,40 -3,62zm-103 -27c-19,5 -26,40 -23,69 -22,5 -45,10 -70,16 -3,-20 -18,-44 0,-57l7 29c13,-30 -35,-78 7,-106 -2,35 -1,37 15,84l14 -35c7,27 -13,63 0,71 13,-18 26,-39 14,-64l36 -7zm-29 -114c-21,13 -62,34 -93,14 4,23 37,16 36,43 -35,-11 -79,99 -64,114l7 -22 2 57 -36 6c-105,14 -196,37 -276,65l-3 -15 -26 -53 -4 -5 -39 -50 -3 -1 0 -290c27,-8 23,-29 30,2l28 -28c1,9 -29,21 -7,28 30,-21 48,-56 86,-71 -17,22 -45,31 -57,57l35 -14c-15,40 7,-16 28,14 27,-19 50,-41 79,-57 -10,24 -42,25 -50,50 32,-6 42,-33 71,-43 -8,25 -40,26 -50,50l21 14c-21,5 -20,-12 -42,-7 -11,30 37,1 35,22 -31,10 -63,-22 -70,7l28 7c-18,6 -62,-14 -57,14l57 7c-26,5 -71,-9 -85,7 -8,19 49,-16 63,7 -29,4 -69,-4 -77,22 -1,7 33,-22 42,0 -27,1 -46,11 -57,28l50 -14c-11,6 -42,28 -21,43l21 0c15,-33 34,-27 57,-57 1,9 -29,21 -8,28 13,-14 17,-35 36,-43 0,11 -26,29 -7,36 16,-22 40,-74 57,-71l-29 57c22,-29 26,-31 22,-7 18,-25 39,-46 64,-64 -11,23 -58,46 -43,71 22,-29 26,-31 22,-7 21,-21 38,-48 63,-64 -16,21 -34,41 -49,64 36,-7 39,-46 71,-57 -5,21 -54,36 -36,57 16,-22 35,-41 57,-57 -8,21 -54,40 -36,64 21,-17 26,-51 58,-57 -5,22 -54,35 -36,57 17,-19 28,-43 57,-50l7 14 -43 36 29 -22 -14 29c14,16 44,17 49,43l50 -8zm-455 -177l-44 33 0 -11 44 -22zm-4570 538l-1 2 -2 1 3 -3zm-57 14l-10 14 -15 7 25 -21zm4583 -553l8 7 -8 2 0 -9zm393 383l13 -27c2,30 5,1 15,0l4 22 -32 5zm-7844 995l0 99c0,3 0,56 0,144l0 3915 16080 0 0 -2857 -618 0c-14,-21 -31,-43 -54,-64l0 0 -2 -3 -11 -9 0 -151 -57 0 0 -59 -18 0 0 -129 -1 0 -33 -5 0 -40c0,-83 -66,-157 -156,-224 -43,-32 -94,-52 -135,-66l5 0 4 -4 -58 -21 0 -6c0,0 -16,-8 -17,-28 0,-20 3,-21 3,-21l0 -15 -6 -15 0 -16 6 -4 -7 -4 0 -12 0 -15 26 -26 -5 -15 1 7 -23 23 -23 -23 2 -7 -6 15 26 26 0 15 -1 12 -7 4 7 4 -1 15 -6 16 0 15c0,0 4,1 3,21 -1,20 -16,28 -16,28l0 6 -58 21 3 4 3 0c-40,14 -91,34 -135,66 -90,67 -156,141 -156,224l1 40 -34 5 -1 0 0 129 -15 0 0 59 -31 0 0 132 -37 28 -2 3 0 0c-23,21 -40,43 -54,64l-74 0c-14,-21 -31,-43 -54,-64l0 0 -2 -3 -11 -9 0 -151 -58 0 0 -59 -18 0 0 -129 -34 -5 -1 0 0 -40c0,-83 -66,-157 -156,-224 -43,-32 -94,-52 -134,-66l5 0 3 -4 -58 -21 0 -6c0,0 -16,-8 -17,-28 0,-20 4,-21 4,-21l-1 -15 -6 -15 0 -16 6 -4 -7 -4 0 -12 0 -15 26 -26 -5 -15 2 7 -24 23 -22 -23 1 -7 -6 15 26 26 0 15 -1 12 -7 4 7 4 -1 15 -6 16 0 15c0,0 4,1 3,21 0,20 -16,28 -16,28l0 6 -58 21 3 4 3 0c-40,14 -91,34 -134,66 -91,67 -157,141 -157,224l1 41 -32 4 -3 0 0 129 -14 0 0 59 -29 0 0 132 -15 10 0 -308c0,0 1,-32 -7,-61l-19 -41 0 0 -4 -4 -29 -37 -2 -1 0 -728 4 -28 13 -29 2 3 4 3 4 -3 9 -8 6 -10 3 0 0 -26 6 0 0 -19 -51 0 0 -164 10 -29 17 -10 0 -10 -7 0 -42 -14c-1,-7 -2,-31 -4,-63l26 0 0 -4 -6 0 -21 -13c-1,-19 -3,-42 -5,-64 -6,-62 -23,-114 -29,-130l4 -4 -5 -6 0 -24 4 -5 -4 -4 -1 -38 3 -3 -3 -3 0 -29 19 -20 -1 -7 0 4 -20 19 -20 -19 0 -4 -1 7 20 20 -1 29 -2 3 2 3 -1 38 -3 4 3 5 0 24 -5 6 4 4c-6,16 -23,68 -29,130 -2,22 -4,45 -5,64l-1 0 -20 13 -6 0 0 4 26 0c-2,32 -3,56 -4,63l-42 14 -7 0 0 10 17 10 11 29 0 164 -52 0 0 19 7 0 0 26 3 0 5 10 10 8 4 3 4 -3 2 -3 13 29 4 28 0 729 -2 0 -33 41c0,0 -13,18 -19,39l0 2 -3 13c-13,-43 -41,-101 -103,-159l-2 -3 -12 -10 0 -169 -29 0 0 -50 -26 0 0 -21 -25 0 0 -144 10 0 13 -11 4 0 0 -22 -38 0 0 -24 -11 0 0 -58 9 0 0 -10 -13 0c0,0 1,-3 1,-22l-25 -51 -6 -5 1 0 3 -2 -15 -11 0 -3 -12 -14 2 -11 0 -8 -5 -8 0 -30 4 -2 -4 -2 -1 -25 22 -21 -8 -15 4 11 -19 17 -19 -17 4 -11 -7 15 22 21 -1 25 -5 2 5 2 -1 30 -4 8 0 8 2 11 -12 14 0 3 -15 11 2 2 1 0 -6 5 -25 51c0,19 1,22 1,22l-13 0 0 10 9 0 0 58 -11 0 0 24 -37 0 0 22 3 0 13 11 10 0 0 144 -25 0 0 21 -24 0 0 -162 -40 0 0 -48c0,-101 -80,-190 -188,-270 -53,-39 -113,-64 -162,-79l5 0 4 -6 -69 -24 0 -8c0,0 -20,-10 -20,-34 -1,-24 3,-25 3,-25l0 -19 -7 -18 -1 -20 8 -4 -8 -5 -1 -14 0 -19 32 -30 -7 -19 2 9 -27 27 -28 -27 2 -9 -7 19 31 30 0 19 -1 14 -8 5 8 4 -1 20 -8 18 0 19c0,0 5,1 4,25 -1,24 -20,34 -20,34l0 8 -70 24 4 6 4 0c-49,15 -110,40 -162,79 -109,80 -188,169 -188,270l0 48 -41 0 0 162 -24 0 0 -21 -24 0 0 -144 9 0 14 -11 3 0 0 -22 -38 0 0 -24 -10 0 0 -58 9 0 0 -10 -13 0c0,0 1,-3 1,-22l-26 -51 -5 -5 1 0 2 -2 -15 -11 0 -3 -12 -14 2 -11 0 -8 -4 -8 -1 -30 5 -2 -5 -2 -1 -25 22 -21 -8 -15 5 11 -19 17 -20 -17 5 -11 -8 15 23 21 0 0 -1 25 -6 2 5 2 0 30 -5 8 0 8 3 11 -12 14 0 3 -16 11 3 2 0 0 -5 5 -23 35c-13,-36 -38,-84 -87,-130l-2 -2 -11 -9 0 -151 -57 0 0 -59 -17 0 0 -130 -2 0 -33 -4 0 -40c0,-84 -66,-157 -156,-224 -43,-32 -94,-53 -134,-66l5 0 3 -4 -58 -21 0 -6c0,0 -16,-8 -17,-29 0,-19 4,-20 4,-20l-1 -15 -6 -16 0 -16 6 -4 -7 -3 0 -12 0 -16 26 -25 -5 -16 2 8 -23 23 -23 -23 1 -8 -5 16 25 25 0 16 -1 12 -6 3 6 4 -1 16 -6 16 0 15c0,0 4,1 3,20 0,21 -16,29 -16,29l0 6 -58 21 3 4 3 0c-40,13 -91,34 -134,66 -91,67 -156,140 -156,224l0 40 -34 4 -1 0 0 130 -10 0 0 -647c0,0 1,-42 -10,-81l-25 -53 -4 -5 -40 -50 -2 -1 0 -959 6 -36 17 -39 2 5 6 4 5 -4 12 -12 8 -12 3 0 0 -35 9 0 0 -26 -68 0 0 -215 14 -38 22 -13 0 -14 -9 0 -56 -18c0,-9 -1,-41 -4,-83l34 0 0 -5 -8 0 -28 -17c-1,-26 -4,-56 -7,-85 -7,-81 -30,-150 -37,-171l5 -6 -7 -7 0 -32 5 -6 -5 -5 -1 -50 3 -4 -3 -4 -1 -38 26 -27 -2 -10 1 6 -27 25 -27 -25 1 -6 -2 10 26 27 0 38 -4 4 3 4 0 50 -5 5 5 6 -1 32 -6 7 5 6c-8,21 -30,90 -38,171 -3,29 -5,59 -7,85l-1 0 -27 17 -8 0 0 5 34 0c-2,42 -4,74 -4,83l-55 18 -10 0 0 14 23 13 13 38 0 215 -67 0 0 26 8 0 0 35 4 0 8 12 12 12 5 4 5 -4 2 -5 18 39 5 36 0 961 -2 -1 -44 55c0,0 -17,23 -24,51l-1 2c-10,39 -9,81 -9,81l0 647 -15 0 0 -130 0 0 -34 -4 0 0 0 -40c0,-84 -66,-157 -156,-224 -44,-32 -95,-53 -135,-66l5 0 3 -4 -58 -21 0 -6c0,0 -16,-8 -16,-29 -1,-19 3,-20 3,-20l-1 -15 -5 -16 -1 -16 6 -4 -6 -3 -1 -12 0 -16 27 -25 -6 -16 2 8 -23 23 -23 -23 1 -8 -5 16 25 25 0 16 -1 12 -7 3 7 4 -1 16 -6 16 0 15c0,0 4,1 3,20 0,21 -16,29 -16,29l0 6 -58 21 3 4 3 0c-40,13 -91,34 -135,66 -18,14 -36,29 -53,43 -113,-180 -317,-368 -734,-423 -239,-31 -369,-104 -436,-170l2 -10 -30 -31 6 -20 -21 -33 0 -20 0 -1c24,-4 48,-15 45,-19l-29 -7c51,4 169,-27 136,-43 63,-4 123,15 170,-7l-35 -14 43 0 0 -29c-29,-9 -51,26 -64,8l42 -22c-27,-7 -46,30 -57,14l36 -28 -50 28 14 -35 -43 28c0,-13 37,-24 15,-35 -18,22 -37,43 -57,63 3,-23 44,-44 28,-63 -19,21 -32,48 -49,71 -4,-28 40,-44 21,-64l-35 56c-3,-19 26,-42 7,-56 -4,33 -14,14 -22,0 -1,29 -4,1 -14,0l-22 43c-4,-13 21,-30 0,-36l-14 21 -4 -14c61,-81 185,-110 239,-178 -15,-21 -39,32 -50,14l29 -42 -21 14 7 -28 -29 35 14 -35c-22,-6 -10,23 -28,21l0 -28 -22 7 -28 56c-6,-18 21,-38 0,-49l-21 64c-10,-25 15,-50 0,-57l-21 50 -8 -43 -14 57c0,-19 4,-42 -14,-43l-21 50 -8 -29 -21 8c-7,37 24,75 14,92 -17,-20 -14,-62 -28,-85 -15,21 19,83 7,99 -17,-21 -9,-66 -28,-85 -10,38 21,74 6,92 -8,-21 -7,-52 -26,-63 19,-107 175,-119 226,-207 -24,-2 -15,28 -36,29l7 -43 -21 43c0,-13 19,-42 0,-50 -4,35 -4,-7 -14,-7 -4,23 -31,20 -36,21 12,-19 62,-37 43,-64l-28 36c5,-18 19,-28 21,-50 -26,-5 -12,30 -29,35l-7 -28 -14 36 -7 -36c5,32 -15,19 -21,7l-8 36 -7 -29c-2,20 -26,17 -28,36 -3,-34 -3,8 -21,0 4,-23 27,-49 0,-64 -4,13 9,43 -15,35l0 -35c-24,21 -14,9 -35,14l7 36 -14 -29 -43 36 36 -57 -36 42c3,-25 48,-45 28,-71l-28 43c-7,-24 22,-48 0,-64l-14 36c1,-21 1,-39 -22,-36l7 45 0 1 0 1 0 1 0 1 0 1 0 -1 0 -1 0 -1 0 -1 0 -1c-3,-18 -13,-30 -28,-38 11,51 -2,3 -21,22l21 28c-13,0 -24,-37 -35,-14l28 28 -21 -14c20,41 51,60 0,21 20,42 51,61 0,22 -4,22 19,18 21,35l-28 -21c-1,25 24,23 28,42 -11,1 -29,-26 -35,-6l35 35 -42 -21c21,19 42,38 63,57 -30,-6 -41,-30 -63,-43 0,27 28,28 35,50 -16,1 -31,-35 -43,-15 18,18 44,28 57,50 -26,-12 -41,-34 -64,-50 10,37 48,47 64,78 -27,-20 -49,-45 -78,-63l-28 28 21 -50 -28 43c8,-27 26,-45 35,-71l-21 14c6,-24 9,-43 0,-57l-25 38 -3 5 3 -5c13,-24 26,-89 -3,-59 7,-36 -5,-21 -8,-57 -7,22 -8,48 -28,57 7,-19 34,-55 14,-78 -9,41 -1,-24 -14,-22l-7 22c-5,-15 11,-50 -14,-43l-8 43 -7 -64c-1,20 7,48 -14,49 11,-4 11,-76 0,-56l-7 35c4,-28 -6,-41 -14,-57l-7 0c1,23 16,32 14,57l-50 -43c3,29 21,41 43,50l-57 -14c-4,22 45,17 0,21l36 15 -29 7c51,10 -20,23 43,28 23,9 -20,8 -29,7 14,15 43,14 64,21 -11,21 -32,-10 -57,0 7,13 23,16 43,15 23,8 -19,8 -28,7 6,12 21,15 42,14 19,22 -45,-9 -42,7 -20,-56 -67,-46 -86,-85 -19,20 17,44 14,71 -18,-19 -24,-51 -42,-71 -5,31 -7,11 -36,0l28 42c10,13 -37,-30 -56,-35l28 28c-8,15 -31,-15 -57,-7l43 22c41,12 -47,0 -50,14l14 42 -35 -49c-22,4 7,15 0,28 6,20 -18,-40 -43,-35l21 28 -49 -21 28 28c-11,15 -30,-21 -57,-14 17,23 23,37 36,64 50,7 136,14 28,14 12,12 32,15 57,14 23,10 -25,7 -36,8l43 7 -21 7c23,3 15,37 50,28 -56,28 91,24 0,28l35 15c1,5 -27,12 -15,32 2,3 4,7 8,10l-8 -10 -20 -25c-22,5 7,15 0,28 6,21 -18,-40 -36,-42 3,26 66,98 22,64 -6,-33 -26,-51 -43,-72l7 29c8,20 -21,-32 -36,-36l7 29c47,71 -4,-10 -49,-43 4,23 13,24 21,36 38,54 -12,-7 -50,-36 1,21 17,27 29,36l-57 -29c2,24 23,29 42,36 -15,17 -41,-15 -63,-14 118,57 259,91 341,185 30,41 60,81 99,113 -25,15 -46,-35 -56,-57l-15 15c-6,-25 -17,-38 -57,-79 48,102 2,9 -35,-28 1,25 20,32 21,57 -20,-22 -34,-52 -50,-78 -22,22 24,37 22,64 -32,-23 -36,-73 -78,-86 7,26 22,44 42,57 -28,9 -46,-53 -78,-64l28 43 -64 -43 50 50c-23,4 -54,-45 -92,-50 -4,22 18,20 28,29l-14 14c-8,20 -8,-11 7,-7 -15,-16 -39,-23 -64,-29l43 29 -26 4c-1,-14 -24,-27 -52,-33 -20,7 15,17 21,22l-57 -15 36 30 -8 -1c-20,-4 -32,-6 -64,-7l36 14c13,10 -19,7 -44,7l0 -593 6 -36 17 -39 3 5 5 4 5 -4 12 -12 8 -12 4 0 0 -35 8 0 0 -26 -67 0 0 -215 14 -38 22 -13 -1 -14 -9 0 -56 -18c0,-9 -1,-41 -4,-83l34 0 0 -5 -8 0 -27 -17c-2,-26 -5,-56 -7,-85 -8,-81 -31,-150 -38,-171l5 -6 -7 -7 0 -32 5 -6 -5 -5 -1 -50 3 -4 -3 -4 -1 -38 26 -27 -2 -10 1 6 -27 25 -26 -25 1 -6 -3 10 27 27 -1 38 -3 4 3 4 -1 50 -5 5 5 6 -1 32 -6 7 5 6c-7,21 -30,90 -38,171 -3,29 -5,59 -7,85l0 0 -28 17 -7 0 0 5 33 0c-2,42 -3,74 -4,83l-55 18 -9 0 0 14 22 13 13 38 0 215 -67 0 0 26 9 0 0 35 3 0 8 12 13 12 4 4 5 -4 3 -5 17 39 6 36 0 791c-15,-20 -32,-39 -53,-58l1 0 -3 -3 -15 -13 0 -204 -77 0 0 -79 -23 0 0 -175 -2 0 -45 -6 1 -54c0,-113 -89,-212 -211,-302 -59,-43 -127,-72 -182,-89l7 0 4 -6 -78 -28 0 -9c0,0 -21,-10 -22,-37 -1,-27 4,-28 4,-28l-1 -21 -8 -21 -1 -21 9 -6 -9 -5 0 -16 0 -20c20,-1 35,-16 35,-35l-7 -21 2 11 -31 29 -31 -29 2 -11 -7 21c0,18 15,33 34,34l0 21 -1 16 -9 5 9 6 -1 21 -8 21 0 21c0,0 4,1 4,28 -1,27 -23,37 -23,37l0 9 -78 28 4 6 5 0c-55,17 -123,46 -182,89 -122,90 -211,189 -211,302l1 54 -45 6 -2 0 0 175 -20 0 0 79 -35 0 -12 -26 -5 -7 -52 -64 -3 -1 0 -1251 8 -47c6,-23 14,-39 22,-51l3 6 7 6 7 -6 16 -15 10 -16 4 0 0 -45 11 0 0 -33 -88 0 0 -281 18 -50 29 -17 0 -18 -12 0 -73 -24c0,-11 -2,-52 -5,-107l44 0 0 -7 -10 0 -36 -22c-2,-35 -6,-73 -9,-112 -10,-105 -40,-195 -49,-222l6 -8 -8 -9 -1 -42 6 -7 -6 -8 -1 -65 4 -4 -4 -6 -1 -49c19,-2 34,-17 34,-35l-3 -13 1 7c0,18 -16,33 -35,33 -19,0 -35,-15 -35,-33l1 -7 -2 13c0,18 15,33 34,35l-1 49 -4 6 4 4 -1 65 -7 8 6 7 0 42 -9 9 7 8c-10,27 -39,117 -49,222 -4,39 -7,77 -9,112l-1 0 -35 22 -10 0 0 7 44 0c-4,54 -5,96 -6,107l-72 24 -12 0 0 18 29 17 18 50 0 281 -88 0 0 33 11 0 0 45 4 0 10 16 16 15 7 6 7 -6 3 -6c8,12 16,28 23,51l7 47 0 1253 -3 -1 -57 71 -15 26 -33 0 0 -79 -25 0 0 -175 -45 -6 -2 0 1 -54c0,-113 -89,-212 -211,-302 -59,-43 -127,-72 -182,-89l7 0 4 -6 -78 -28 0 -9c0,0 -22,-10 -23,-37 0,-27 5,-28 5,-28l-1 -21 -8 -21 -1 -21 9 -6 -9 -5 -1 -16 0 -20c20,-1 36,-16 36,-35l-7 -21 2 11 -31 29 -31 -29 2 -11 -8 21c0,18 16,33 35,34l0 21 -1 16 -9 5 8 6 0 21 -9 21 0 21c0,0 5,1 4,28 0,27 -22,37 -22,37l0 9 -78 28 4 6 4 0c-54,17 -122,46 -181,89 -82,60 -148,125 -184,196l-366 -193 -739 740 -52 -667 -291 0 0 583 -5 0 5 19 0 28 -41 -34c3,28 20,41 41,50l0 1 -55 -15c-4,21 45,18 0,21l36 15 -29 7c51,10 -20,22 43,28l5 3 0 3 -33 1 33 14 0 8 -26 0 26 13 0 8 -12 0 12 9 0 8 -12 4c-20,-56 -67,-46 -85,-85 -20,20 17,44 14,71 -19,-19 -24,-51 -43,-71 -5,31 -6,11 -36,0l29 43c10,12 -38,-31 -57,-36l28 29c-7,14 -31,-16 -56,-8l42 22c42,12 -46,0 -49,14l14 42 -36 -49c-21,4 7,15 0,28 7,20 -18,-40 -42,-35l21 28 -50 -21 29 28c-12,15 -30,-21 -57,-14 17,23 22,38 36,64 49,7 136,15 28,14 11,13 32,16 57,14 22,10 -25,7 -36,8l43 6 -22 8c23,3 15,37 50,28 -55,28 92,24 0,29l36 14c1,5 -27,12 -15,33 1,3 4,6 7,9l-7 -9 -21 -26c-21,4 7,15 0,28 6,21 -17,-40 -35,-42 3,25 66,99 21,64 -6,-33 -26,-51 -43,-71l7 28c8,20 -21,-32 -35,-36l7 29c46,71 -5,-10 -50,-43 5,23 14,24 22,36 37,54 -13,-7 -50,-36 0,21 16,27 28,36l-57 -29c3,24 24,29 43,36 -15,17 -41,-15 -64,-14 118,57 260,91 341,185l9 11 -15 5 -22 -24 12 27 -4 2 -44 -57c1,25 21,32 22,57 -21,-22 -34,-52 -50,-79 -23,24 23,38 21,64 -32,-22 -36,-72 -78,-85 7,26 22,45 42,57 -28,9 -45,-53 -78,-64 5,20 21,27 29,43l-64 -43 50 50c-24,5 -55,-45 -93,-50 -3,23 18,20 29,28l-8 8 0 0 -7 7c-8,21 -7,-10 7,-7l1 0 -1 0c-14,-16 -39,-23 -63,-29l42 29 -26 4c-1,-14 -23,-27 -52,-33 -19,7 15,18 21,21l-56 -13 35 30 -7 -2c-21,-5 -33,-6 -64,-7l36 14 -65 7c31,26 56,17 -7,29l0 6 36 8 -29 21c29,2 50,-40 65,-29 -18,14 -41,22 -50,43 33,-7 28,-33 35,0l29 -28c1,9 -29,21 -7,28 30,-21 47,-56 85,-71 -16,22 -44,32 -57,57l36 -14c-15,40 6,-16 28,14 27,-19 49,-41 78,-57 -9,24 -41,25 -50,50 33,-6 43,-33 72,-43 -9,25 -41,26 -50,50l21 14c-22,5 -21,-12 -43,-7 -11,30 37,1 36,22 -32,9 -63,-22 -71,7l29 7c-19,5 -62,-14 -58,14l58 7c-27,5 -71,-9 -86,7 -8,19 49,-16 64,8 -30,2 -70,-4 -78,21 -1,8 33,-22 42,0 -26,1 -45,11 -56,28l49 -14 -27 36 -3 2c-150,110 -264,231 -296,365l0 -182 4 -28 13 -28 2 3 4 3 4 -3 9 -8 6 -9 3 0 0 -27 6 0 0 -20 -51 0 0 -162 11 -28 16 -11 0 -10 -7 0 -42 -14c0,-6 -1,-30 -3,-62l25 0 0 -4 -5 0 -21 -12c-1,-21 -3,-43 -5,-65 -7,-61 -23,-113 -29,-129l4 -4 -5 -6 0 -24 3 -4 -4 -5 0 -37 2 -3 -2 -3 -1 -29 20 -20 -1 -8 0 4 -20 19 -20 -19 0 -4 -1 8 19 20 0 29 -3 3 3 3 -1 37 -4 5 4 4 0 24 -5 6 4 4c-6,16 -23,68 -29,129 -2,22 -4,44 -5,64l-21 13 -6 0 0 4 26 0c-2,32 -3,56 -3,62l-42 14 -7 0 0 10 16 11 11 28 0 162 -51 0 0 20 6 0 0 27 3 0 6 9 9 8 4 3 4 -3 2 -3 13 28 4 28 0 227c-30,-94 -112,-178 -217,-257 -65,-47 -140,-78 -200,-97l8 0 4 -7 -85 -30 0 -9c0,0 -24,-12 -25,-42 -1,-29 5,-30 5,-30l-1 -23 -8 -23 -1 -23 9 -6 -10 -6 0 -18 0 -22c21,0 39,-17 39,-38l-9 -23 3 12 -34 32 -34 -32 3 -12 -9 23c0,20 16,37 37,38l0 22 0 18 -10 6 9 6 -1 23 -9 23 0 23c0,0 6,1 5,30 -1,30 -25,42 -25,42l0 9 -85 30 4 7 5 0c-60,19 -134,50 -199,97 -103,76 -184,159 -216,250l0 -220 5 -28 12 -28 2 3 4 3 4 -3 9 -8 6 -9 3 0 0 -27 6 0 0 -20 -51 0 0 -162 11 -28 17 -11 -1 -10 -7 0 -42 -14c0,-6 -1,-30 -3,-62l25 0 0 -4 -5 0 -21 -12c-1,-21 -3,-43 -6,-65 -5,-61 -22,-113 -28,-129l4 -4 -5 -6 -1 -24 4 -4 -4 -5 0 -37 2 -3 -2 -3 -1 -29 20 -20 -1 -8 0 4 -20 19 -20 -19 0 -4 -2 8 20 20 0 29 -2 3 2 3 -1 37 -4 5 4 4 0 24 -5 6 4 4c-6,16 -23,68 -29,129 -2,22 -4,44 -5,64l-1 0 -20 13 -6 0 0 4 26 0c-2,32 -3,56 -4,62l-42 14 -6 0 0 10 16 11 11 28 0 162 -51 0 0 20 6 0 0 27 3 0 6 9 9 8 4 3 4 -3 2 -3 13 28 4 28 0 191c-82,-57 -174,-96 -250,-120l10 0 7 -8 -114 -41 0 -12c0,0 -31,-16 -32,-55 -2,-39 6,-41 6,-41 0,0 20,-11 -1,-30l-11 -29 -1 -32 12 -8 -13 -7 -1 -24 0 -30c29,0 52,-22 52,-50l-11 -30 3 16c0,23 -20,42 -45,42 -25,0 -45,-19 -45,-42l4 -16 -12 30c0,27 22,48 50,50l0 30 -1 24 -13 7 12 8 -1 31 -12 30c-20,19 0,30 0,30 0,0 7,2 6,41 -2,39 -33,55 -33,55l0 12 -113 41 6 8 6 0c-79,26 -178,67 -263,130 -140,103 -249,215 -289,339l-17 0zm8372 -1413l-4 5 1 -5 3 0zm-4 5l-6 9 6 -9zm-68 -111l-2 11 -1 0 1 -12 2 1zm-769 93c31,7 19,10 0,0zm-4819 475c31,6 20,9 0,0z"/>
   <path class="fil21" d="M28434 13122c-168,124 -291,261 -291,417 0,16 0,54 0,74l-61 9 -3 0 0 242 -28 0 0 108 -57 0 0 247c-27,18 -51,36 -69,54l-4 3c-59,55 -98,111 -126,162 4,-201 10,-402 10,-593 0,-171 -33,-353 20,-491 34,36 -32,104 0,138l10 -30c6,47 12,89 29,30 0,22 0,45 0,68 53,1 -17,-106 29,-49 9,-39 -42,-86 0,-49 -3,-38 -11,-71 -29,-69 37,-8 -1,-47 19,-59 29,72 15,141 50,216 -2,-24 5,-40 20,-49 -8,31 -8,19 0,49 35,10 8,-44 39,-39l10 20c-20,-69 -32,-146 -79,-187 -30,-89 85,-85 59,-118 40,19 56,-39 78,-48 37,-17 95,-2 40,-30 40,4 102,-21 98,-30l-39 -10c69,6 232,-37 186,-58 85,-6 165,17 230,-9 -47,22 -96,48 -141,81zm-745 1284c-27,-42 -61,-86 -108,-130l-4 -3 -20 -18 0 -283 -108 0 0 -108 -35 0 0 -242 -62 -9 -2 0c0,-20 0,-58 0,-74 0,-121 -74,-231 -186,-332 12,-18 20,-41 42,-49 0,14 -36,40 -10,49 22,-31 55,-102 79,-99 -8,25 -63,55 -39,79 29,-40 35,-41 29,-9 26,-34 55,-64 88,-89 -14,32 -79,64 -59,98 30,-40 36,-41 30,-9 30,-30 53,-66 88,-89 -22,30 -48,57 -69,89 51,-9 55,-64 99,-79 -6,30 -75,49 -49,79 22,-31 48,-57 78,-79 -10,29 -75,55 -49,88 29,-24 35,-70 79,-79 -7,31 -75,50 -49,79 22,-26 39,-59 78,-69l10 20c-15,-18 -85,28 -59,49 7,-11 33,-51 39,-29 -17,2 -22,16 -19,39 20,22 61,24 68,59 22,1 64,-27 69,-10 -28,18 -86,46 -127,20 4,31 50,21 49,59 -49,-16 -110,135 -89,157l10 -30c6,27 -12,78 10,89 -2,-25 5,-41 20,-49 1,40 6,1 19,0 -3,22 3,36 20,39 3,-27 -28,-69 0,-89l10 40c17,-42 -49,-107 9,-148 -3,50 -2,52 20,118l20 -48c11,37 -18,85 0,97 18,-25 37,-55 19,-88 21,1 37,-20 49,-9 -37,8 -38,104 -19,137l19 -40c-1,50 3,54 20,20 4,279 -2,585 -8,885zm-537 -1209l-2 -2 17 -17 -15 19zm-55 -46l-12 -9c22,-6 51,-12 62,6l-50 3zm-37 -29c-35,-26 -73,-47 -110,-66 36,-12 31,-39 40,3l39 -38c2,12 -40,29 -10,38 43,-29 67,-77 118,-97 -22,29 -62,43 -78,78 22,-10 49,-20 49,-19 -20,55 8,-22 39,19 37,-26 67,-57 108,-78 -13,32 -57,34 -68,68 43,-8 58,-46 97,-59 -11,35 -55,36 -68,69l29 19c-30,8 -29,-17 -58,-9 -16,41 50,1 49,29 -44,14 -88,-30 -99,10l39 10c-24,8 -84,-19 -78,19 5,9 71,-12 78,10 -30,6 -77,-5 -104,4l-12 -10zm2640 850l-106 0 0 -108 -32 0 0 -242 -2 0 -62 -9c0,-20 1,-58 1,-74 0,-156 -123,-293 -291,-417 -82,-60 -176,-99 -251,-123l9 0 6 -9 -108 -38 0 -12c0,0 -30,-15 -31,-52 -1,-37 6,-39 6,-39 0,0 19,-10 -1,-29l-11 -28 -1 -30 12 -7 -13 -7 0 -23 0 -28c27,0 49,-21 49,-48l-11 -29 4 15c0,23 -20,41 -43,41 -24,0 -43,-18 -43,-41l3 -15 -11 29c0,25 21,46 48,48l0 28 -2 23 -12 7 12 7 -1 30 -11 28c-20,19 -1,29 -1,29 0,0 7,2 6,39 -1,37 -31,52 -31,52l0 12 -108 38 6 9 6 0c-33,11 -69,24 -106,41 -24,1 -39,-6 -47,-19 19,0 39,0 58,0l0 -40c-39,-12 -69,35 -88,10 22,-8 53,-6 59,-29 -37,-11 -63,40 -79,19 13,-11 73,-25 50,-39 -21,16 -51,20 -69,39 3,-15 42,-42 19,-49 -19,7 -46,57 -58,39 -1,-18 50,-33 19,-49 -25,31 -51,60 -78,88 4,-32 61,-62 39,-88 -26,30 -45,67 -69,99 -5,-39 57,-62 30,-89 -21,22 -27,58 -49,78 -4,-27 37,-60 9,-78 -5,46 -18,19 -29,0 -2,40 -6,1 -20,0 -13,15 -8,50 -29,59 -6,-18 29,-41 0,-49l-20 29 -7 -19c85,-112 257,-153 331,-246 -22,-29 -54,44 -69,20 15,-13 65,-40 40,-60 -3,10 -27,44 -30,20 9,-3 34,-36 10,-39 -15,15 -17,41 -39,49 4,-19 21,-25 19,-49 -31,-9 -13,32 -39,30 3,-6 25,-38 0,-40 -11,26 -12,34 -29,10 -16,23 -22,57 -40,79 -8,-26 30,-54 0,-69 -16,22 -9,69 -29,88 -13,-33 22,-68 0,-79l-29 70c-6,-18 12,-58 -10,-59 -23,9 4,70 -20,78 0,-26 6,-58 -19,-59 -15,18 -17,49 -30,69l-10 -39c-5,20 -15,20 -29,10 -10,51 33,103 19,127 -24,-28 -19,-85 -39,-118 -21,29 26,115 10,137 -23,-29 -13,-91 -39,-117 -14,53 29,102 10,127 -12,-29 -12,-71 -38,-87 26,-148 242,-165 312,-285 -32,-3 -21,37 -49,39 2,-16 33,-51 10,-59 -14,16 -8,50 -29,59 0,-18 26,-58 0,-69 -6,48 -5,-10 -20,-10 -6,33 -42,27 -49,30 16,-27 85,-52 59,-89 -15,15 -18,41 -39,49 8,-24 27,-39 29,-68 -36,-8 -17,42 -39,49l-10 -40c-17,6 1,47 -20,49 -5,-14 12,-50 -9,-49 6,45 -21,26 -30,10 -5,15 12,51 -10,49l-10 -39c-2,27 -36,23 -39,49 -4,-47 -4,12 -29,0 6,-31 37,-67 0,-88 -5,19 13,59 -20,48l0 -48c-34,29 -19,12 -49,19 8,7 31,46 10,49l-20 -39c-8,23 -49,62 -59,49 22,-14 68,-56 49,-78 -17,18 -27,45 -49,59 5,-36 67,-64 39,-99l-39 59c-9,-33 31,-67 0,-88l-19 49c2,-28 1,-54 -30,-49 -4,25 35,56 10,69 -4,-29 -17,-49 -39,-59 15,70 -4,5 -30,29l30 40c-18,0 -33,-51 -50,-20l40 39 -30 -19c29,57 71,83 0,29 29,57 71,83 0,29 -4,31 27,27 30,50 -20,-3 -19,-27 -40,-30 -1,34 34,32 40,59 -15,0 -40,-37 -49,-10 20,12 36,29 49,49 -19,-4 -49,-48 -59,-29 29,27 58,53 89,78 -43,-7 -58,-41 -89,-59 1,39 40,39 49,69 -22,2 -43,-47 -59,-20 25,25 60,39 79,69 -35,-17 -58,-47 -88,-69 14,52 65,65 88,109 -37,-29 -68,-64 -108,-89 -7,14 -28,62 -40,40 11,-17 54,-51 29,-69 -10,22 -21,43 -38,58 11,-37 36,-61 49,-98 -20,-3 -20,14 -30,20 9,-34 13,-60 0,-78 -14,18 -14,51 -39,58 21,-25 45,-133 0,-88 11,-49 -6,-28 -10,-78 -9,29 -11,67 -39,78 10,-26 47,-76 19,-108 -11,57 -1,-32 -19,-30l-10 30c-6,-20 16,-68 -20,-59 -5,17 12,58 -10,59 -3,-24 9,-112 -9,-88 -2,28 8,67 -20,68 15,-5 15,-105 0,-78 -5,14 12,51 -10,49 6,-38 -8,-57 -19,-78l-10 0c1,31 22,42 20,78 -19,-25 -45,-41 -69,-59 3,39 28,57 59,69 -10,15 -58,-14 -79,-20 -6,30 62,25 0,29 8,15 25,22 49,20l-39 10c70,14 -28,32 59,39 32,12 -26,11 -39,10 19,20 59,19 88,30 -16,28 -44,-14 -79,0 9,17 31,21 59,19 32,11 -26,11 -39,10 9,18 31,21 59,20 26,29 -63,-13 -59,10 -27,-78 -91,-64 -118,-118 -27,27 24,61 20,98 -26,-26 -34,-71 -59,-98 -7,42 -8,15 -49,0 -21,15 36,35 39,59 14,17 -52,-43 -79,-49 -22,11 26,32 40,38 -11,21 -44,-20 -79,-9 6,24 37,22 59,29 57,17 -64,2 -69,20 4,23 13,41 20,59 -15,15 -29,-56 -49,-69 -29,7 9,21 0,40 9,26 -25,-56 -59,-50 -22,7 19,33 30,40 -16,20 -44,-28 -69,-30 -24,12 30,28 39,40 -15,20 -42,-30 -79,-20 24,32 31,51 49,88 70,9 189,20 40,20 16,17 44,21 78,19 32,14 -34,10 -49,10 1,22 42,4 59,10l-29 10c32,5 21,51 68,39 -76,39 127,33 0,40 2,21 25,21 50,19 1,8 -50,19 -10,59 -11,20 -24,-40 -40,-49 -29,6 10,21 0,39 8,28 -24,-55 -49,-58 5,34 92,135 30,88 -8,-45 -36,-70 -59,-98 -23,2 11,26 10,39 11,28 -29,-44 -50,-49 -18,20 3,28 11,39 63,98 -7,-13 -69,-59 6,32 18,34 29,49 52,75 -16,-9 -69,-49 1,29 23,36 40,49 -18,18 -54,-30 -78,-39 2,33 32,39 58,49 -21,24 -57,-21 -88,-19 163,79 358,125 471,255 41,57 84,113 137,157 -34,20 -63,-48 -78,-79l-20 20c-8,-35 -23,-52 -78,-108 65,140 3,11 -49,-39 1,34 28,43 29,79 -28,-31 -47,-72 -68,-109 -32,32 32,53 29,89 -44,-32 -50,-102 -108,-119 10,36 31,62 59,80 -39,12 -64,-75 -108,-89 6,26 28,37 39,59 12,13 -63,-45 -89,-59 -15,22 51,48 69,69 -32,6 -75,-62 -127,-69 -5,31 25,28 39,39l-10 10 0 0 -9 10c-11,28 -11,-15 9,-10l0 0 0 0c-20,-22 -55,-31 -88,-40 8,25 41,25 59,40l-36 7c-1,-20 -33,-38 -72,-47 -27,9 21,24 30,30 -10,15 -58,-14 -79,-20 14,21 34,34 48,42l-9 -2c-29,-6 -45,-8 -89,-10 2,22 25,21 50,20 24,18 -65,6 -89,10 43,35 76,23 -9,39l0 10c13,5 50,-12 48,9 -24,-1 -30,15 -39,30 39,2 69,-55 89,-39 -23,16 -51,28 -65,53 -48,-24 -95,-42 -137,-55l9 0 7 -9 -108 -38 0 -12c0,0 -30,-15 -31,-52 -2,-37 6,-39 6,-39 0,0 19,-10 -1,-29l-11 -28 -1 -30 12 -7 -13 -7 -1 -23 0 -28c28,0 50,-21 50,-48l-11 -29 4 15c0,23 -20,41 -44,41 -23,0 -43,-18 -43,-41l4 -15 -11 29c0,25 21,46 47,48l0 28 -1 23 -12 7 11 7 -1 30 -10 28c-20,19 -1,29 -1,29 0,0 7,2 6,39 -2,37 -31,52 -31,52l0 12 -108 38 6 9 6 0c-76,24 -170,63 -251,123l-39 30 0 -1040c0,0 4,-42 10,-61 8,-28 18,-49 29,-65l4 8 8 7 9 -7 21 -19 13 -21 6 0 0 -58 14 0 0 -44 -113 0 0 -365c0,0 1,-42 23,-63l37 -23 -1 -24 -16 2 -93 -32c-1,-15 -3,-68 -7,-139l57 0 0 -9 -14 0 -46 -29c-3,-45 -7,-94 -12,-144 -13,-137 -51,-253 -63,-289l8 -10 -11 -12 -1 -54 9 -10 -9 -10 -1 -84 5 -6 -6 -7 -1 -64c25,-2 44,-21 44,-46l-3 -16 1 9c0,24 -20,43 -45,43 -25,0 -45,-19 -45,-43l1 -9 -4 16c0,25 20,44 45,46l-1 64 -6 7 6 6 -2 84 -9 10 9 10 -1 54 -11 12 9 10c-13,36 -51,152 -64,289 -6,50 -9,99 -12,144l-47 29 -13 0 0 9 57 0c-4,71 -7,124 -7,139l-94 32 -15 -2 0 24 38 23c21,21 23,63 23,63l0 365 -115 0 0 44 15 0 0 58 6 0 13 21 21 19 9 7 9 -7 3 -8c11,16 21,37 30,65 5,19 9,61 9,61l0 1507 -25 3 -5 0 0 146 -47 60c0,0 -30,41 -43,87l0 3 -7 29c-29,-95 -92,-226 -228,-354l-6 -6 -27 -23 0 -376 -64 0 0 -111 -57 0 0 -46 -55 0 0 -321 21 0 30 -25 8 0 0 -50 -84 0 0 -51 -24 0 0 -130 20 0 0 -23 -28 0c0,0 1,-5 1,-48 0,-42 -23,-80 -56,-114l-12 -11 1 0 6 -5 -34 -24 0 -7c0,0 -26,-9 -27,-31 -1,-23 5,-24 5,-24l0 -18 -10 -17 -1 -67 11 -4 -12 -4 -1 -58c27,0 48,-20 48,-44l-16 -35 9 24c0,21 -19,39 -42,39 -24,0 -43,-18 -43,-39l9 -24 -17 35c0,24 23,45 51,45l-2 57 -12 4 11 4 -1 67 -10 17 0 18c0,0 6,1 5,24 -1,22 -27,31 -27,31l0 7 -35 24 6 5 2 0 -12 11c-33,34 -57,72 -57,114 0,43 1,48 1,48l-28 0 0 23 20 0 0 130 -24 0 0 51 -84 0 0 50 8 0 30 25 20 0 0 321 -54 0 0 46 -53 0 0 -361 -90 0c0,-28 0,-84 0,-107 0,-224 -177,-422 -419,-600 -117,-86 -253,-143 -361,-177l13 0 8 -12 -155 -55 0 -18c0,0 -43,-21 -44,-74 -2,-54 8,-56 8,-56 0,0 28,-16 -1,-42l-16 -40 -1 -44 17 -10 -19 -11 0 -32 0 -41c39,0 71,-30 71,-68l-15 -42 5 22c0,32 -29,58 -62,58 -34,0 -62,-26 -62,-58l4 -22 -15 42c0,36 30,66 68,68l0 41 -2 32 -18 11 18 10 -2 43 -16 41c-28,26 -1,42 -1,42 0,0 11,2 8,56 -1,53 -44,74 -44,74l0 18 -156 55 10 12 8 0c-109,34 -244,91 -362,177 -241,178 -418,376 -418,600 0,23 0,79 0,107l-90 0 0 361 -53 0 0 -46 -55 0 0 -321 21 0 30 -25 7 0 0 -50 -84 0 0 -51 -24 0 0 -130 21 0 0 -23 -29 0c0,0 2,-5 2,-48 0,-42 -24,-80 -56,-114l-13 -11 2 0 5 -5 -33 -24 0 -7c0,0 -26,-9 -27,-31 -1,-23 5,-24 5,-24l0 -18 -10 -17 -1 -67 10 -4 -11 -4 -2 -58c27,0 49,-20 49,-44l-17 -35 9 24c0,21 -18,39 -42,39 -24,0 -42,-18 -42,-39l9 -24 -17 35c0,24 23,45 50,45l1 0 -3 57 -11 4 10 4 -1 67 -9 17 0 18c0,0 5,1 5,24 -2,22 -28,31 -28,31l0 7 -34 24 6 5 2 0 -13 11c-32,34 -56,72 -56,114 0,43 1,48 1,48l-28 0 0 23 20 0 0 130 -24 0 0 51 -84 0 0 50 8 0 29 25 21 0 0 321 -54 0 0 46 -57 0 0 111 -64 0 0 376 -27 23 -6 6 -13 14c-60,-163 -208,-310 -393,-447 -118,-87 -254,-143 -364,-178l14 0 8 -13 -156 -55 0 -18c0,0 -43,-22 -45,-75 -2,-54 8,-56 8,-56 0,0 28,-16 0,-43l-17 -40 -1 -44 17 -11 -18 -10 -1 -33 0 -41c39,0 72,-31 72,-68l-16 -43 5 22c0,33 -28,59 -62,59 -34,0 -63,-26 -63,-59l5 -22 -15 43c0,36 30,66 68,68l0 41 -2 33 -18 10 18 11 -2 42 -16 42c-28,27 -1,43 -1,43 0,0 10,2 9,56 -2,53 -45,75 -45,75l0 18 -157 55 9 13 8 0c-109,35 -245,91 -364,178 -188,139 -336,289 -395,455l0 -401 8 -50c7,-24 16,-41 24,-54l3 7 7 6 7 -6 17 -16 12 -17 4 0 0 -48 11 0 0 -35 -93 0 0 -298 20 -52 30 -19 0 -19 -13 1 -76 -26c-1,-12 -3,-56 -6,-113l46 0 0 -8 -10 0 -39 -23c-2,-37 -5,-77 -9,-118 -11,-112 -42,-207 -52,-236l6 -9 -9 -10 0 -43 6 -8 -6 -8 -1 -69 4 -5 -5 -6 -1 -52c21,-2 37,-17 37,-37l-3 -14 1 8c0,19 -17,35 -37,35 -20,0 -37,-16 -37,-35l1 -8 -3 14c0,20 16,35 37,37l-2 52 -4 6 4 5 -1 69 -7 8 7 8 -1 43 -9 10 7 9c-10,29 -41,124 -52,236 -4,41 -7,81 -10,118l-38 23 -10 0 0 8 46 0c-3,57 -5,101 -6,113l-76 26 -13 -1 0 19 30 19 19 52 0 298 -92 0 0 35 12 0 0 48 4 0 11 17 17 16 7 6 7 -6 3 -7c9,13 17,30 24,54l8 50 0 701 -45 -16 10 0 6 -8 -108 -38 0 -12c0,0 -30,-15 -31,-52 -1,-37 6,-39 6,-39 0,0 19,-11 -1,-29l-11 -28 -1 -31 12 -6 -13 -8 -1 -23 0 -28c27,0 50,-21 50,-47l-11 -29 4 15c0,22 -20,41 -44,41 -23,0 -42,-19 -42,-41l3 -15 -11 29c0,25 21,45 48,47l0 28 -1 23 -13 8 12 6 -1 30 -11 29c-20,18 -1,29 -1,29 0,0 7,2 6,39 -1,37 -31,52 -31,52l0 12 -108 38 6 8 6 0c-75,24 -169,63 -251,123 -168,124 -291,262 -291,418 0,15 0,54 0,74l-61 9 -3 0 0 241 -28 0 0 109 -58 0 0 873 -435 0 0 -156 -109 0 0 -109 -35 0 0 -241 -61 -9 -3 0c0,-20 1,-59 1,-74 0,-156 -123,-294 -292,-418 -81,-60 -175,-99 -251,-123l9 0 7 -8 -108 -38 0 -12c0,0 -30,-15 -31,-52 -2,-37 5,-39 5,-39 0,0 19,-11 0,-30l-11 -27 -2 -31 13 -6 -13 -8 -1 -22 0 -29c28,0 50,-21 50,-47l-11 -29 3 15c0,22 -19,41 -42,41 -24,0 -44,-19 -44,-41l4 -15 -11 29c0,25 21,45 47,47l0 29 -1 22 -13 8 13 6 -1 30 -12 28c-19,19 0,30 0,30 0,0 7,2 6,39 -1,37 -32,52 -32,52l0 12 -107 38 6 8 6 0c-76,24 -170,63 -251,123 -168,124 -291,262 -291,418 0,16 0,56 0,75l-59 8 -5 0 0 241 -26 0 0 109 -55 0 0 156 -87 0 0 -928 6 -38 18 -40 2 5 6 4 5 -4 12 -12 9 -13 4 0 0 -36 8 0 0 -27 -70 0 0 -224 15 -39 23 -15 -1 -15 -10 1 -57 -20c0,-8 -2,-41 -5,-85l35 0 0 -6 -8 0 -28 -17c-2,-28 -4,-59 -8,-89 -8,-85 -31,-157 -39,-178l5 -7 -7 -7 0 -33 5 -6 -5 -6 -1 -53 4 -3 -4 -5 -1 -39 27 -28 -1 -10 0 5 -28 26 -28 -26 1 -5 -2 10 27 28 0 39 -4 5 4 3 -1 53 -5 6 5 6 -1 33 -6 7 4 7c-7,21 -31,93 -39,178 -3,30 -6,61 -7,89l-29 17 -8 0 0 6 35 0c-3,44 -4,77 -4,85l-58 20 -9 -1 -1 15 23 15 15 39 0 224 -70 0 0 27 8 0 0 36 4 0 8 13 13 12 5 4 6 -4 2 -5 18 40 6 38 0 311c-42,-128 -155,-244 -300,-352 -90,-65 -193,-108 -276,-134l10 0 7 -9 -118 -42 0 -14c0,0 -33,-16 -34,-56 -1,-41 6,-43 6,-43 0,0 21,-12 0,-32l-13 -31 -1 -33 14 -8 -14 -8 -2 -24 0 -31c31,-1 55,-24 55,-52l-11 -32 3 16c0,24 -21,45 -47,45 -26,0 -47,-21 -47,-45l3 -16 -11 32c0,28 22,50 52,51l0 32 -2 24 -13 8 13 8 -2 32 -11 32c-22,20 -1,32 -1,32 0,0 7,2 6,43 -1,40 -34,56 -34,56l0 14 -118 42 7 9 6 0c-83,26 -186,69 -275,134 -142,105 -254,218 -298,343l0 -302 6 -38 17 -40 3 5 5 4 6 -4 13 -12 8 -13 4 0 0 -36 9 0 0 -27 -71 0 0 -224 15 -39 23 -15 -1 -15 -10 1 -58 -20c0,-8 -1,-41 -4,-85l35 0 0 -6 -7 0 -29 -17c-2,-28 -5,-59 -7,-89 -9,-85 -32,-157 -40,-178l5 -7 -6 -7 -1 -33 5 -6 -5 -6 -1 -53 3 -3 -3 -5 -1 -39 28 -28 -1 -5 -29 26 -28 -26 1 -5 -2 10 27 28 -1 39 -3 5 3 3 0 53 -6 6 6 6 -1 33 -7 7 5 7c-7,21 -31,93 -39,178 -3,30 -6,61 -7,89l-1 0 -29 17 -7 0 0 6 35 0c-3,44 -4,77 -4,85l-59 20 -9 -1 0 15 23 15 15 39 0 224 -71 0 0 27 9 0 0 36 3 0 9 13 13 12 5 4 5 -4 3 -5 18 40 6 38 0 557c-75,-96 -199,-188 -423,-217 -147,-20 -229,-65 -270,-105l2 -6 -19 -20 4 -13 -13 -20 -1 -12 8 -14 -9 -14 -5 -118 -5 0 -4 118 -9 14 7 14 -1 12 -12 20 3 13 -19 20 2 6c-41,40 -122,85 -269,105 -384,50 -477,284 -527,409l-53 0 0 179 0 0c0,-399 0,-693 0,-701 0,-131 -60,-253 -158,-368l0 1935 16576 0 0 -2640zm-1480 -1020l-4 6 1 -6 3 0zm-4 6l-9 13 9 -13zm-95 -153l-2 19 0 -20 2 1zm-2 19c6,13 21,23 0,29l0 -29zm-1061 110c44,10 28,13 0,0zm-12046 844l-2 -5 2 5z"/>
   <path class="fil22" d="M11942 13955c-48,22 -98,47 -143,77l-17 12c-35,-11 -96,2 -136,-4 10,-26 96,-2 102,-12 8,-46 -70,-13 -102,-23 4,-16 32,-10 51,-12 -14,-46 -70,5 -128,-11 -2,-32 84,14 64,-35 -39,-8 -37,21 -77,12l39 -23c-18,-39 -76,-40 -90,-80 52,14 70,58 128,68 -15,-40 -73,-42 -90,-80 53,25 93,62 141,92 40,-49 78,42 52,-23 0,-1 34,11 64,23 -22,-42 -73,-58 -103,-92 67,24 99,80 154,115 39,-12 -15,-31 -12,-46 22,10 39,26 51,46 12,-50 5,-18 52,-4zm-411 143c-9,-37 0,-36 38,11 30,-28 -41,-63 -51,-93 30,-4 74,80 103,116 34,-11 -14,-40 -13,-58 28,11 39,37 55,58 -146,119 -244,248 -244,391 0,18 0,64 1,87l-3 0 -81 10 0 285 -46 0 0 127 -142 0 0 333 -26 21 -4 4c-62,52 -106,103 -141,153 -9,-353 -16,-713 -11,-1041 22,40 28,35 25,-23 25,1 9,38 26,46 25,-38 24,-151 -26,-162 17,-12 38,13 65,12 -23,39 2,74 25,104 23,-15 -14,-71 0,-116 20,10 19,37 26,58 28,-78 30,-80 26,-139 76,47 -11,124 12,174l14 -47c36,23 -5,73 0,104 22,-3 29,-19 25,-46 18,2 23,48 26,0 18,10 27,29 25,58 29,-13 5,-73 13,-104l13 35c28,-25 -52,-204 -116,-185 -1,-44 59,-33 65,-69 -55,31 -130,-3 -167,-24 7,-20 62,13 90,12 10,-41 63,-43 90,-69 3,-27 -4,-44 -26,-47 9,-25 43,22 51,35 34,-25 -57,-79 -77,-58l13 -23c52,11 73,50 103,81 32,-35 -56,-57 -64,-93 56,11 65,65 102,93 34,-39 -50,-70 -64,-104 39,26 74,57 103,93 33,-35 -56,-57 -65,-93 58,18 63,83 129,93 -28,-37 -61,-69 -90,-105 47,28 77,70 115,105 -8,-37 0,-36 39,11 26,-40 -58,-78 -77,-116 44,30 82,65 116,105zm128 0l22 20 -4 3 -18 -23zm25 -35c15,-22 53,-13 82,-7l-16 10c-21,-1 -45,-1 -66,-3zm-859 820c0,224 8,461 13,697 -36,-60 -87,-125 -164,-190l-5 -4c-25,-21 -55,-42 -90,-63l0 -291 -76 0 0 -127 -36 0 0 -285 -3 0 -81 -10c0,-23 1,-69 1,-87 0,-184 -161,-345 -381,-491 -59,-39 -123,-69 -185,-95 86,31 191,4 301,10 -60,25 153,76 244,69 -4,16 -32,10 -51,12 -6,10 75,40 128,35 -73,32 3,15 51,35 29,11 50,79 103,57 -35,38 115,34 77,139 -62,48 -77,138 -103,219l13 -23c40,-6 5,57 51,46 10,-35 10,-22 0,-57 19,9 28,28 27,57 44,-88 26,-170 63,-254 28,13 -23,59 26,70 -24,-3 -35,36 -39,81 56,-44 -11,11 0,57 61,-66 -30,59 39,58 0,-27 0,-54 0,-81 22,70 30,21 38,-34l13 34c42,-39 -45,-120 0,-162 69,162 26,376 26,578zm-8567 -245l-19 19 -30 -8c-2,-20 27,-12 49,-11zm-34 37l0 13 -3 1c-20,-22 -51,-35 -76,-52 20,-14 45,20 79,38zm-55 29c-58,17 -140,42 -148,48l-1 2c-20,-9 -69,6 -93,-1 4,-16 32,-10 52,-12 -15,-46 -71,5 -129,-11 -2,-33 83,14 64,-35 -39,-8 -38,20 -77,12l39 -23c-18,-39 -75,-41 -90,-81 52,15 71,60 128,69 -15,-40 -73,-42 -89,-81 52,26 93,63 140,93 40,-49 78,42 52,-24 -1,0 34,12 64,24 -22,-41 -73,-58 -102,-93 67,24 98,81 153,116 40,-12 -14,-31 -13,-47 22,10 38,25 50,44zm-393 105l36 37c-7,-32 -1,-34 24,-6 -20,9 -40,18 -60,27l0 -21 0 -12 0 -25zm80 24c-10,-22 -50,-47 -58,-69 20,-3 45,31 68,65l-10 4zm71 -45c7,-20 57,-11 85,-10l-32 10c-19,2 -38,2 -53,0zm102 -23l3 1 17 0 -20 7 0 -8zm143 -62c8,-35 6,-22 29,-9l-29 9zm-750 383l-10 8c4,-18 4,-34 2,-64l8 7 0 49zm0 -126c-38,-5 -75,-21 -98,-34 7,-20 62,13 90,12l8 -15 0 37zm0 -241l-8 22 -26 -22c-20,35 -58,116 -103,92 53,-39 96,-86 137,-135l0 43zm0 -710c-13,12 -25,28 -34,51 6,-26 -111,23 -77,-11 37,2 65,-3 77,-23 -17,1 -93,1 -51,-11 37,1 65,-4 77,-24 -45,-16 -82,33 -103,0 36,-12 85,-12 111,-33l0 51zm0 -52c-22,1 -86,0 -47,-12 30,-2 43,-6 47,-10l0 22zm0 -59l-21 -11 21 -3 0 14zm0 -53c-25,9 -52,18 -60,7 25,-8 46,-21 60,-39l0 32zm-85 1278l-7 39 -17 16c-5,-33 -17,-62 -40,-67 15,-13 37,12 64,12zm23 12l2 -24 10 14 -12 10zm28312 3852l0 -3043c-84,-144 -245,-316 -629,-361 -192,-24 -298,-76 -352,-123l2 -8 -25 -23 5 -14 -16 -24 -1 -15 9 -16 -11 -17 -6 -138 -6 0 -7 138 -12 17 10 16 -1 15 -16 24 4 14 -24 23 2 8c-54,47 -160,99 -352,123 -293,34 -455,142 -553,256l0 -656 7 -44c8,-21 16,-36 25,-47l3 5 6 5 7 -5 17 -13 12 -15 4 0 0 -43 12 0 0 -32 -93 0 0 -264 20 -46 30 -16 0 -18 -13 0 -76 -23c-1,-10 -2,-49 -5,-100l46 0 0 -6 -11 0 -37 -21 -1 0c-2,-33 -5,-69 -9,-105 -11,-99 -42,-184 -51,-209l6 -8 -9 -9 -1 -38 8 -8 -8 -7 -1 -61 5 -4 -5 -5 0 -47c19,-2 35,-15 35,-32l-3 -13 1 7c0,16 -16,31 -37,31 -19,0 -36,-15 -36,-31l1 -7 -3 13c0,17 16,30 36,32l-1 47 -4 5 4 4 -1 61 -7 7 7 8 -1 38 -9 9 7 8c-10,25 -41,110 -52,209 -3,36 -6,72 -9,105l-38 21 -10 0 0 6 46 0c-3,51 -5,90 -5,100l-76 23 -13 0 0 18 29 16 19 46 0 264 -91 0 0 32 11 0 0 43 5 0 11 15 16 13 8 5 6 -5 4 -5c8,11 16,26 23,47l7 44 0 356c-57,-147 -203,-280 -388,-403 -118,-78 -252,-128 -360,-159l8 0 9 -10 -155 -50 0 -15c0,0 -42,-20 -44,-67 -1,-48 8,-50 8,-50 0,0 28,-15 -1,-38l-15 -37 -2 -38 17 -9 -18 -10 -1 -29 0 -36c38,-2 67,-28 67,-61l-15 -38 5 19c0,29 -28,53 -61,53 -35,0 -62,-24 -62,-53l4 -19 -14 38c0,34 31,61 71,61l0 36 -2 29 -18 10 18 9 -2 39 -16 36c-28,23 -1,38 -1,38 0,0 10,2 8,50 -2,47 -44,67 -44,67l0 15 -155 50 9 10 13 0c-108,31 -242,81 -360,159 -189,126 -337,262 -392,414l0 -367 8 -44c7,-21 15,-36 24,-47l3 5 7 5 7 -5 16 -13 11 -15 5 0 0 -43 12 0 0 -32 -93 0 0 -264 20 -46 30 -16 -1 -18 -12 0 -76 -23c0,-10 -1,-49 -5,-100l46 0 0 -6 -11 0 -37 -21c-2,-33 -5,-69 -11,-105 -10,-99 -40,-184 -50,-209l6 -8 -8 -9 -1 -38 6 -8 -6 -7 -2 -61 5 -4 -5 -5 0 -47c20,-2 36,-15 36,-32l-3 -13 0 7c0,16 -16,31 -36,31 -20,0 -37,-15 -37,-31l1 -7 -2 13c0,17 15,30 36,32l-1 47 -5 5 5 4 -2 61 -7 7 7 8 -1 38 -8 9 6 8c-10,25 -40,110 -51,209 -4,36 -7,72 -10,105l-37 21 -11 0 0 6 47 0c-5,51 -6,90 -6,100l-76 23 -12 0 -1 18 30 16 20 46 0 264 -93 0 0 32 12 0 0 43 5 0 11 15 16 13 7 5 7 -5 3 -5c8,11 17,26 23,47l9 44 0 1091 -114 0 0 -182 -73 0 0 -128 -33 0 0 -284 -6 0 -78 -10c0,-23 0,-69 0,-88 0,-184 -161,-346 -380,-491 -106,-70 -229,-117 -328,-145l8 0 8 -10 -141 -44 0 -15c0,0 -39,-17 -41,-60 -2,-44 8,-47 8,-47 0,0 25,-13 -1,-34l-14 -33 -2 -35 16 -8 -17 -9 -1 -27 0 -33c34,-2 61,-26 61,-56l-13 -34 4 18c0,26 -25,48 -57,48 -30,0 -55,-22 -55,-48l4 -18 -14 34c0,31 29,55 65,56l0 33 -1 27 -16 9 15 8 -2 36 -13 32c-26,21 -1,34 -1,34 0,0 8,3 7,47 -2,43 -41,60 -41,60l0 15 -140 44 7 10 12 0c-98,28 -221,75 -328,145 -219,145 -381,307 -381,491 0,18 2,64 2,87l-4 0 -80 11 0 284 -46 0 0 128 -141 0 0 182 -570 0 0 -182 -75 0 0 -128 -37 0 0 -284 -3 0 -81 -11c0,-23 1,-69 1,-86 0,-184 -161,-346 -380,-492 -107,-70 -231,-116 -329,-144l8 0 9 -11 -142 -44 0 -15c0,0 -39,-17 -40,-60 -2,-44 7,-46 7,-46 0,0 25,-13 -1,-35l-15 -33 -1 -35 16 -8 -17 -9 -1 -26 0 -33c35,-3 62,-26 62,-57l-14 -33 4 17c0,26 -25,48 -56,48 -31,0 -56,-22 -56,-48l4 -17 -14 33c0,32 29,56 65,57l0 33 -1 26 -17 9 16 8 -1 36 -15 32c-25,22 0,35 0,35 0,0 8,2 7,46 -1,43 -41,60 -41,60l0 15 -140 44 8 11 11 0c-18,5 -38,12 -57,18l0 -825 10 -58c9,-28 19,-48 31,-63l4 7 10 7 9 -7 22 -18 14 -20 6 0 0 -56 16 0 0 -42 -121 0 0 -350c0,0 2,-40 24,-61l39 -22 0 -23 -16 1 -100 -30c0,-14 -3,-66 -8,-134l61 0 0 -8 -13 0 -50 -28c-4,-43 -8,-91 -13,-139 -14,-131 -55,-243 -69,-276l10 -11 -12 -12 -1 -51 10 -9 -10 -10 -1 -80 5 -7 -5 -6 -2 -63c26,-1 47,-20 47,-42l-3 -17 1 9c0,23 -22,42 -48,42 -26,0 -48,-19 -48,-42l1 -9 -4 17c0,22 20,41 47,42l0 63 -7 6 6 7 -2 80 -9 10 9 9 -1 51 -11 12 8 11c-12,33 -53,145 -68,276 -5,48 -9,96 -12,139l-50 28 -14 0 0 8 61 0c-5,68 -7,120 -8,134l-99 30 -18 -1 0 23 40 22c23,21 25,61 25,61l0 350 -121 0 0 42 15 0 0 56 6 0 13 20 23 18 9 7 10 -7 3 -7c12,15 23,35 33,63l9 58 0 473c-76,-196 -270,-372 -516,-536 -154,-102 -332,-168 -475,-209l10 0 12 -16 -205 -64 0 -21c0,0 -56,-26 -58,-89 -2,-63 11,-66 11,-66 0,0 36,-18 -1,-49 -19,-17 -21,-49 -21,-49l-2 -50 23 -13 -24 -12 -3 -38 0 -48c50,-3 89,-39 89,-82 0,-19 -7,-36 -19,-50l6 26c0,38 -37,70 -81,70 -45,0 -81,-32 -81,-70l5 -26c-13,14 -20,31 -20,50 0,45 42,81 95,82l0 48 -2 38 -24 12 22 13 -2 51c0,0 -1,31 -21,48 -37,31 -1,49 -1,49 0,0 14,3 11,66 -2,63 -58,89 -58,89l0 21 -205 64 12 16 17 0c-143,41 -321,107 -476,209 -242,161 -434,335 -513,526l-17 -17 -7 -6 -36 -27 0 -443 -84 0 0 -131 -74 0 0 -53 -71 0 0 -378 27 0 39 -29 10 0 0 -59 -110 0 0 -60 -31 0 0 -153 27 0 0 -27 -38 0c0,0 2,-6 2,-57 0,-49 -31,-93 -73,-133l-17 -14 3 0 7 -6 -45 -27 0 -9c0,0 -34,-10 -35,-36 -1,-27 6,-29 6,-29 0,0 22,-7 -1,-20l-12 -21 -1 -78 13 -5 -14 -5 -3 -67 1 0c36,0 65,-24 65,-54l-22 -39 12 28c0,24 -24,44 -55,44 -31,0 -56,-20 -56,-44l12 -28 -22 39c0,30 29,53 64,54l-2 67 -15 5 13 5 -1 79 -13 20c-22,13 -1,20 -1,20 0,0 9,2 7,29 -1,26 -35,36 -35,36l0 9 -43 27 7 6 3 0 -17 14c-43,40 -73,84 -73,133 0,51 2,57 2,57l-38 0 0 27 27 0 0 153 -32 0 0 60 -109 0 0 59 10 0 39 29 27 0 0 378 -71 0 0 53 -70 0 0 -424 -118 0c0,-33 0,-99 0,-125 0,-264 -231,-496 -546,-706 -153,-102 -331,-168 -473,-208l11 0 12 -14 -203 -65 0 -21c0,0 -56,-25 -58,-88 -3,-63 11,-65 11,-65 0,0 36,-18 -2,-49l-20 -49 -3 -50 23 -12 -24 -13 -1 -38 0 -47c49,-3 89,-38 89,-81l-21 -49 7 25c0,39 -37,69 -82,69 -44,0 -81,-30 -81,-69l7 -25 -20 49c0,45 42,80 93,81l0 47 -1 38 -24 13 22 12 -2 51c0,0 -1,31 -20,48 -38,31 -2,49 -2,49 0,0 13,2 11,65 -2,63 -58,88 -58,88l0 21 -202 65 11 14 17 0c-142,40 -320,106 -472,208 -316,210 -548,442 -548,706 0,26 1,92 1,125l-118 0 0 424 -70 0 0 -53 -71 0 0 -378 27 0 39 -29 10 0 0 -59 -109 0 0 -60 -32 0 0 -153 26 0 0 -27 -36 0c0,0 1,-6 1,-57 0,-49 -30,-93 -74,-133l-16 -14 3 0 7 -6 -45 -27 0 -9c0,0 -34,-10 -36,-36 -1,-27 7,-29 7,-29 0,0 22,-7 0,-20l-13 -21 -1 -78 14 -5 -15 -5 -3 -67c37,0 66,-24 66,-54l-22 -39 12 28c0,24 -25,44 -56,44 -31,0 -55,-20 -55,-44l11 -28 -21 39c0,30 29,53 64,54l-2 67 -15 5 14 5 -2 79 -12 20c-23,13 -2,20 -2,20 0,0 10,2 8,29 -2,26 -35,36 -35,36l0 9 -45 27 8 6 2 0 -16 14c-43,40 -73,84 -73,133 0,51 1,57 1,57l-37 0 0 27 26 0 0 153 -30 0 0 60 -111 0 0 59 11 0 39 29 27 0 0 378 -71 0 0 53 -75 0 0 131 -84 0 0 443 -35 27 -8 6c-178,151 -259,305 -298,417l-8 -35 -1 -3c-17,-54 -55,-102 -55,-102l-63 -71 0 -172 -6 0 -33 -2 0 -1772c0,0 6,-50 13,-73 11,-33 24,-58 38,-77l5 10 12 9 11 -9 27 -23 18 -24 7 0 0 -68 20 0 0 -52 -150 0 0 -429c0,0 3,-49 30,-74 21,-19 47,-23 50,-27l0 -28 -21 1 -122 -37c-1,-18 -4,-80 -10,-163l75 0 0 -11 -18 0 -60 -34c-4,-53 -8,-111 -16,-170 -17,-160 -67,-297 -83,-338l11 -13 -14 -14 -1 -63 11 -12 -12 -12 -1 -98 7 -8 -7 -7 -2 -77c33,-2 58,-24 58,-53l-4 -20 1 11c0,28 -27,51 -59,51 -33,0 -59,-23 -59,-51l1 -11 -4 20c0,29 25,51 58,53l-2 77 -7 7 7 8 -2 98 -11 12 11 12 -1 63 -15 14 11 13c-16,41 -66,178 -83,338 -6,59 -11,117 -16,170l-60 34 -17 0 0 11 74 0c-6,83 -8,145 -9,163l-123 37 -20 -1 -1 28c2,4 29,8 48,27 29,25 31,74 31,74l0 429 -149 0 0 52 19 0 0 68 8 0 17 24 28 23 11 9 11 -9 5 -10c14,19 27,44 38,77 7,23 13,73 13,73l0 1222 -51 -36c-106,-70 -229,-116 -328,-144l8 0 8 -10 -142 -45 0 -14c0,0 -38,-18 -40,-62 -1,-43 8,-45 8,-45 0,0 24,-13 -1,-34l-14 -34 -2 -35 16 -8 -17 -8 -1 -27 0 -33c34,-2 62,-27 62,-57l-14 -33 4 17c0,27 -26,48 -56,48 -31,0 -57,-21 -57,-48l5 -17 -14 33c0,32 29,57 65,57l0 33 -1 27 -17 8 16 8 -2 36 -14 33c-26,21 -1,34 -1,34 0,0 9,2 8,45 -1,44 -41,62 -41,62l0 14 -140 45 7 10 12 0c-54,15 -116,37 -178,64 -19,-29 -55,-43 -85,-62 26,-19 64,49 115,46 -10,-17 -18,-37 -51,-35 -2,-25 46,-5 64,-11l0 -12c-112,-19 -69,-4 -13,-46 -30,-4 -147,10 -115,-12 32,2 62,3 64,-22 -56,2 -78,4 -115,11l-13 2c20,-9 45,-24 64,-48 -28,6 -90,40 -103,22 12,-6 74,-24 39,-34 -52,10 -92,31 -95,54l-46 -7c24,-18 66,-18 77,-47 -44,10 -89,20 -115,46l0 1 0 -1c26,-6 26,45 12,12l-12 -12 0 0 -13 -12c19,-13 57,-9 51,-45 -68,8 -124,88 -167,80 24,-24 110,-54 90,-80 -34,16 -131,84 -116,69 15,-26 43,-39 52,-69 -58,17 -91,118 -141,104 36,-21 63,-51 76,-93 -76,20 -83,101 -141,139 -3,-43 80,-67 39,-105 -29,44 -53,91 -90,128 2,-41 37,-52 38,-93 -67,59 -149,211 -64,47 -71,65 -91,86 -102,126l-26 -23c-20,36 -58,117 -102,93 70,-52 125,-118 179,-185 148,-152 403,-207 616,-300 -40,-1 -88,51 -116,23 35,-12 74,-19 77,-57 -32,10 -79,66 -102,46 22,-15 50,-24 51,-58 -68,46 -158,145 -89,58 13,-19 30,-20 38,-58 -81,53 -173,184 -90,69 10,-13 37,-22 13,-46 -26,6 -78,90 -64,58 -2,-16 43,-43 13,-46 -31,33 -67,63 -78,115 -80,55 34,-63 39,-104 -32,4 -74,101 -64,70 -12,-22 38,-40 0,-47 -20,10 -37,81 -51,58 51,-47 -16,-61 -13,-69 32,2 62,2 64,-23 -165,-8 100,-1 0,-47 62,14 48,-40 90,-46l-39 -12c23,-6 76,14 77,-11 -19,0 -104,4 -64,-12 45,2 82,-3 103,-23 -195,1 -39,-12 51,-23 24,-43 34,-65 64,-103 -48,-12 -82,47 -102,23 11,-15 82,-33 51,-46 -32,2 -70,57 -90,34 14,-8 67,-38 39,-46 -45,-8 -89,89 -77,58 -13,-22 38,-39 0,-46 -27,14 -44,98 -65,80 10,-21 22,-42 26,-69 -5,-22 -164,-4 -90,-23 29,-9 70,-7 77,-35 -46,-13 -88,35 -102,11 18,-7 81,-32 51,-45 -35,7 -120,77 -103,57 4,-27 79,-51 52,-69 -54,18 -56,50 -65,0 -33,32 -43,84 -77,116 -4,-44 61,-83 26,-116 -34,64 -118,47 -154,139 5,-26 -111,23 -77,-12 37,2 65,-3 77,-23 -17,1 -93,1 -51,-11 36,2 65,-4 77,-24 -45,-16 -82,33 -103,0 38,-12 91,-11 115,-35 -16,2 -92,2 -51,-11 113,-9 -15,-29 77,-46 -19,-2 -47,4 -51,-12 32,2 53,-6 64,-23 -81,-6 8,0 0,-35 -28,7 -90,41 -103,24 40,-15 73,-35 78,-81 -32,21 -67,40 -91,69 -3,-42 24,-55 26,-92l-13 0c-14,25 -33,47 -25,92 -28,3 -6,-41 -13,-57 -20,-32 -20,85 0,91 -37,-1 -23,-48 -26,-80 -24,-28 -8,76 -12,104 -29,-2 -6,-49 -14,-70 -46,-10 -17,46 -25,70l-13 -35c-23,-3 -10,102 -25,35 -37,37 13,96 25,127 -36,-14 -39,-58 -51,-92 -5,59 -28,34 -13,92 -59,-53 -27,75 0,104 -32,-10 -32,-48 -51,-69 -18,21 -11,52 0,92 -13,-7 -13,-27 -39,-23 17,42 49,71 64,115 -22,-18 -37,-43 -51,-69 -31,22 25,61 39,81 -15,26 -43,-30 -52,-47 -53,30 -93,71 -140,105 28,-51 96,-67 114,-128 -40,26 -69,62 -114,81 24,-35 69,-52 101,-81 -20,-32 -47,26 -76,23 12,-35 62,-35 64,-80 -41,21 -61,60 -116,69 40,-29 78,-61 116,-92 -13,-22 -52,29 -77,34 16,-24 37,-43 64,-57 -11,-32 -45,12 -64,11 8,-31 54,-29 51,-69 -26,3 -25,31 -51,35 4,-28 45,-22 38,-58 -92,63 -37,33 0,-35 -92,63 -37,33 0,-34l-38 22c12,-20 29,-35 51,-46 -21,-36 -41,24 -63,24l38 -47c-35,-28 -59,48 -38,-34 -30,12 -47,35 -52,69 -33,-15 18,-51 13,-81 -40,-5 -41,25 -39,58 -19,-9 -19,-37 -25,-58 -40,25 12,65 0,104 -24,-18 -31,-50 -52,-70 -36,41 45,75 52,116 -30,-15 -42,-47 -65,-69 -25,27 36,76 65,93 -13,14 -67,-32 -78,-59 -16,9 -23,25 -25,47 -28,-4 2,-50 13,-58 -39,-9 -21,11 -64,-23 0,19 0,39 0,57 -44,13 -20,-35 -26,-57 -48,25 -9,67 0,104 -34,14 -33,-55 -38,0 -5,-31 -49,-26 -52,-58l-13 47c-27,1 -6,-41 -13,-59 -11,20 -47,42 -39,-11 -27,-2 -5,41 -12,58 -27,-3 -4,-51 -26,-58l-13 46c-28,-8 -3,-66 -51,-57 3,34 28,51 38,81 -28,-10 -31,-41 -50,-59 -35,44 55,73 76,105 -9,-3 -57,4 -64,-35 -19,-1 -18,68 -26,12 -34,13 0,60 0,80 -27,-10 -20,-50 -38,-69 -30,10 11,51 13,69 -37,-1 -22,-49 -64,-46 92,142 374,162 408,336 -34,18 -33,68 -49,103 -25,-31 31,-88 13,-150 -34,30 -22,103 -51,138 -22,-27 40,-128 13,-161 -27,38 -19,106 -52,138 -18,-28 38,-89 26,-150 -19,13 -32,12 -39,-11l-13 46c-16,-24 -19,-60 -39,-81 -32,1 -25,38 -25,69 -31,-9 4,-81 -26,-92 -28,1 -5,48 -13,69 -21,-19 -15,-63 -38,-81 -28,12 17,53 0,93 -26,-23 -16,-78 -38,-105 -39,18 10,52 0,82 -22,-26 -31,-65 -52,-93 -22,29 -23,19 -38,-12 -32,3 -4,40 0,47 -34,3 -10,-45 -51,-35 -2,29 20,36 25,58 -28,-9 -32,-40 -51,-58 -30,4 1,43 13,46 -4,28 -35,-12 -39,-23 -33,23 33,55 52,70 -19,28 -62,-58 -90,-23 97,108 322,156 432,289l-9 23 -25 -36c-38,10 7,37 0,58 -28,-10 -21,-51 -39,-69 -17,2 -24,47 -26,0 -13,22 -32,54 -38,0 -36,22 18,60 12,92 -28,-23 -36,-67 -64,-92 -34,32 46,59 39,104 -31,-37 -56,-81 -90,-115 -28,30 47,65 51,103 -34,-33 -69,-67 -102,-103 -40,18 27,36 26,58 -17,20 -52,-39 -77,-47 -30,9 21,40 25,58 -23,-23 -63,-28 -90,-47 -30,18 48,34 65,47 -21,24 -55,-36 -103,-23 8,27 49,26 77,34 -25,29 -64,-26 -115,-11l0 46c25,0 51,0 76,0 -10,16 -31,24 -61,23 -48,-20 -96,-36 -139,-48l7 0 9 -10 -141 -45 0 -14c0,0 -39,-18 -41,-62 -1,-43 8,-45 8,-45 0,0 25,-13 -1,-34l-14 -34 -2 -35 16 -8 -16 -8 -3 -27 0 -33c35,-2 63,-27 63,-57l-14 -33 4 17c0,27 -25,48 -57,48 -30,0 -55,-21 -55,-48l4 -17 -14 33c0,32 29,57 65,57l0 33 -1 27 -17 8 16 8 -1 36 -15 33c-25,21 -1,34 -1,34 0,0 9,2 7,45 -1,44 -40,62 -40,62l0 14 -141 45 8 10 12 0c-98,28 -221,74 -328,144 -220,146 -380,307 -380,491 0,18 0,64 0,87l-81 10 -3 0 0 285 -42 0 0 127 -139 0 0 333 -26 21 -5 4c-244,206 -247,528 -247,537l0 9c-80,-149 -237,-335 -639,-383 -193,-23 -300,-75 -353,-123l2 -7 -25 -23 5 -14 -17 -24 0 -16 9 -15 -11 -16 -6 -141 -7 0 -6 141 -11 16 9 15 -1 16 -17 24 6 14 -25 23 2 7c-53,48 -160,100 -352,123 -249,30 -404,112 -505,206l0 -966 8 -45c7,-21 15,-37 23,-48l3 6 7 5 7 -5 17 -14 11 -15 5 0 0 -42 11 0 0 -32 -92 0 0 -264 19 -46 31 -17 -1 -17 -12 1 -76 -23c0,-11 -2,-50 -5,-101l45 0 0 -7 -10 0 -37 -21 -1 0c-2,-32 -5,-68 -9,-105 -11,-99 -42,-183 -52,-208l7 -8 -9 -9 0 -39 6 -7 -7 -7 -1 -61 5 -4 -5 -6 -1 -46c20,-2 36,-15 36,-33l-3 -12 1 6c0,18 -16,31 -37,31 -19,0 -35,-13 -35,-31l0 -6 -3 12c0,18 16,31 36,33l-1 46 -4 6 4 4 -1 61 -7 7 7 7 -1 39 -8 9 6 8c-10,25 -40,109 -51,208 -4,37 -8,73 -10,105l-37 21 -10 0 0 7 45 0c-3,51 -6,90 -6,101l-75 23 -13 -1 0 17 30 17 19 46 0 264 -93 0 0 32 12 0 0 42 5 0 11 15 16 14 8 5 7 -5 3 -5c9,10 16,26 23,47l8 45 0 356c-57,-148 -204,-281 -390,-405 -116,-77 -251,-127 -359,-158l8 0 9 -11 -155 -50 0 -14c0,0 -42,-20 -44,-68 -1,-47 9,-49 9,-49 0,0 27,-14 -1,-38l-16 -37 -2 -38 18 -9 -19 -10 -1 -29 0 -36c38,-2 68,-29 68,-61l-16 -38 5 19c0,29 -28,53 -62,53 -34,0 -61,-24 -61,-53l4 -19 -15 38c0,33 32,61 72,61l0 36 -2 29 -18 10 17 9 -2 38 -15 37c-29,24 -2,38 -2,38 0,0 11,2 9,49 -1,48 -44,68 -44,68l0 14 -154 50 8 11 13 0c-108,31 -242,81 -359,158 -130,86 -239,178 -314,275l-3 -55 0 0c37,0 66,-24 66,-54l-22 -40 12 28c0,26 -25,46 -56,46 -30,0 -55,-20 -55,-46l12 -28 -22 40c0,30 28,53 64,54l-3 63 -2 4 -12 5 6 3c-28,39 -49,79 -63,120l0 -366 7 -45c7,-21 15,-37 23,-48l4 6 6 5 8 -5 16 -14 11 -15 5 0 0 -42 12 0 0 -32 -92 0 0 -264 18 -46 31 -17 0 -17 -13 1 -76 -23c0,-11 -2,-50 -5,-101l46 0 0 -7 -11 0 -37 -21c-3,-32 -6,-68 -10,-105 -11,-99 -41,-183 -51,-208l6 -8 -8 -9 -1 -39 7 -7 -7 -7 -2 -61 5 -4 -5 -6 0 -46c19,-2 35,-15 35,-33l-2 -12 0 6c0,18 -16,31 -36,31 -20,0 -36,-13 -36,-31l0 -6 -2 12c0,18 15,31 35,33l-1 46 -4 6 4 4 -1 61 -7 7 7 7 -1 39 -8 9 6 8c-10,25 -40,109 -51,208 -4,37 -7,73 -10,105l-37 21 -10 0 0 7 45 0c-3,51 -5,90 -5,101l-76 23 -12 -1 -1 17 30 17 19 46 0 264 -92 0 0 32 11 0 0 42 5 0 11 15 17 14 6 5 8 -5 3 -5c8,10 17,26 23,47l8 45 0 918 -14 0 0 59 10 0 4 3 0 197 -3 1 -54 60 -5 7 -1 0 -16 30 0 -261 -118 0c1,-34 1,-100 1,-126 0,-265 -231,-496 -547,-706 -154,-102 -330,-168 -473,-209l12 0 11 -14 -203 -64 0 -21c0,0 -56,-25 -58,-88 -2,-62 11,-65 11,-65 0,0 36,-18 -1,-50 -19,-16 -21,-48 -21,-48l-2 -50 23 -12 -24 -13 -2 -38 0 -47c49,-3 88,-38 88,-81l-20 -49 6 25c0,38 -36,69 -80,69 -45,0 -81,-31 -81,-69l6 -25 -20 49c0,44 42,81 93,81l0 47 -1 38 -24 13 23 12 -3 51c0,0 -1,31 -20,47 -37,32 -1,50 -1,50 0,0 12,3 10,65 -1,19 -6,34 -14,46 -103,-17 -61,-4 -7,-45 -31,-4 -146,9 -115,-12 32,2 62,2 64,-23 -57,2 -78,5 -115,12l-13 2c20,-8 45,-24 64,-48 -28,6 -90,40 -103,23 11,-8 74,-25 39,-35 -52,10 -92,30 -95,54l-46 -8c24,-17 66,-17 77,-46 -45,10 -89,20 -116,46l0 0 0 0c27,-6 28,45 13,12l-13 -12 0 0 -13 -11c20,-14 58,-10 52,-47 -67,9 -121,84 -164,81l0 -3c28,-24 106,-52 87,-78 -20,9 -59,35 -87,54l0 -19 22 -35 -22 11 0 -55c101,-40 207,-75 305,-117 -40,-1 -88,51 -116,23 35,-12 73,-19 77,-58 -32,10 -79,67 -102,46 22,-14 50,-23 51,-57 -68,47 -158,145 -90,57 14,-18 31,-20 39,-57 -81,53 -173,184 -90,69 9,-13 37,-22 13,-46 -26,5 -78,90 -65,57 -1,-15 44,-43 14,-46l-36 38 0 -119 22 -11 -22 -1 0 -12c26,1 60,10 61,-11l-61 0 0 -11c44,1 80,-3 100,-23 -195,1 -39,-13 51,-23 23,-43 34,-66 64,-104 -48,-12 -82,48 -103,23 11,-14 83,-32 52,-45 -32,1 -71,58 -90,34 14,-8 66,-38 38,-47 -45,-7 -88,90 -76,58 -13,-21 38,-39 0,-45 -14,7 -25,32 -36,53l0 -658c0,0 5,-47 12,-68 10,-32 23,-56 37,-73l4 9 11 8 11 -8 25 -22 17 -23 7 0 0 -64 18 0 0 -50 -141 0 0 -404c0,0 3,-47 29,-71 19,-18 44,-21 46,-25l0 -27 -19 2 -116 -36c-1,-15 -3,-76 -9,-154l70 0 0 -10 -15 0 -58 -32 0 0c-4,-50 -9,-106 -15,-161 -16,-152 -63,-281 -78,-320l10 -12 -13 -13 -2 -60 11 -11 -11 -11 -2 -93 7 -7 -7 -8 -1 -72c30,-1 54,-23 54,-50l-4 -19 1 11c0,26 -24,47 -55,47 -31,0 -56,-21 -56,-47l2 -11 -5 19c0,27 24,49 54,50l-1 72 -6 8 6 7 -1 93 -11 11 10 11 -1 60 -13 13 10 12c-15,39 -62,168 -79,320 -6,55 -11,111 -15,161l-57 32 -16 0 0 10 70 0c-5,78 -8,139 -9,154l-115 36 -19 -2 -1 27 45 25c27,24 30,71 30,71l0 404 -141 0 0 50 18 0 0 64 6 0 17 23 26 22 10 8 11 -8 5 -9c13,17 26,41 36,73 7,21 12,68 12,68l0 373c-26,17 -53,34 -72,58 -4,-42 24,-56 25,-92l-13 0c-14,25 -32,47 -25,92 -28,2 -6,-41 -13,-58 -19,-32 -19,86 0,92 -37,-1 -23,-48 -26,-80 -23,-28 -8,76 -13,103 -28,-1 -5,-49 -12,-69 -46,-11 -18,45 -26,69l-13 -34c-23,-3 -10,102 -25,34 -37,37 12,97 25,128 -36,-14 -39,-58 -51,-93 -5,60 -28,35 -13,93 -58,-54 -27,74 0,103 -32,-9 -33,-47 -51,-69 -17,22 -11,53 0,93 -13,-8 -13,-27 -39,-24 17,43 49,72 64,116 -22,-19 -37,-43 -51,-69 -31,21 25,61 38,80 -14,27 -42,-29 -51,-46 -53,30 -93,71 -141,104 29,-51 97,-66 116,-127 -41,25 -70,61 -116,81 25,-35 70,-52 102,-81 -20,-32 -47,25 -76,23 11,-35 62,-36 64,-81 -41,22 -61,61 -116,69 40,-29 78,-61 116,-92 -13,-21 -52,30 -77,35 16,-24 37,-43 64,-58 -12,-31 -45,12 -64,12 8,-31 54,-29 51,-69 -26,3 -25,31 -51,34 4,-27 44,-21 38,-58 -92,63 -36,33 0,-34 -92,63 -36,33 0,-35l-38 23c11,-21 29,-35 51,-46 -21,-36 -40,23 -64,23l39 -46c-35,-28 -59,47 -39,-35 -29,12 -46,35 -51,70 -33,-16 19,-52 13,-81 -40,-5 -41,24 -39,57 -19,-9 -18,-37 -25,-57 -40,25 12,65 0,104 -24,-18 -31,-50 -52,-70 -36,41 45,75 52,116 -30,-16 -42,-47 -65,-69 -25,27 36,75 65,93 -13,14 -68,-32 -77,-59 -18,8 -24,25 -26,46 -28,-3 2,-50 13,-57 -39,-10 -20,11 -65,-23 0,19 0,39 0,57 -43,12 -19,-35 -25,-57 -49,24 -9,67 0,104 -34,13 -33,-56 -39,0 -4,-31 -48,-27 -51,-58l-13 47c-28,1 -6,-42 -13,-59 -11,20 -47,41 -38,-11 -28,-2 -6,40 -13,57 -26,-3 -3,-50 -26,-57l-12 46c-30,-8 -4,-66 -52,-58 4,36 28,52 39,82 -29,-10 -33,-41 -51,-59 -35,43 55,73 76,104 -9,-2 -56,4 -64,-34 -19,-1 -18,68 -25,11 -35,14 0,60 0,81 -28,-10 -21,-51 -39,-69 -30,9 11,50 13,69 -37,-1 -22,-50 -64,-46 92,142 374,161 408,336 -35,17 -34,68 -49,103 -25,-31 31,-88 13,-151 -34,31 -21,104 -51,139 -22,-27 39,-128 12,-162 -26,39 -19,106 -51,139 -18,-28 38,-89 26,-150 -19,13 -32,12 -39,-12l-13 46c-16,-24 -19,-59 -38,-80 -33,1 -26,38 -26,69 -32,-10 4,-81 -25,-93 -29,2 -6,49 -13,70 -22,-19 -16,-63 -39,-81 -29,12 17,52 0,92 -26,-22 -16,-77 -38,-104 -39,18 10,51 0,81 -22,-26 -31,-65 -52,-92 -22,28 -23,19 -38,-12 -32,2 -4,39 0,46 -34,4 -10,-44 -52,-34 -1,28 21,36 26,58 -28,-9 -32,-41 -51,-58 -30,3 1,43 13,46 -4,27 -35,-12 -39,-23 -33,23 33,54 51,69 -18,29 -61,-57 -89,-23 97,109 321,158 432,289l-9 23 -26 -35c-37,10 8,38 0,58 -27,-10 -20,-50 -38,-69 -17,2 -24,47 -26,0 -14,22 -32,53 -38,0 -36,22 18,60 13,92 -29,-23 -37,-67 -64,-92 -35,32 45,59 38,103 -31,-37 -56,-80 -90,-115 -29,31 47,66 52,104 -36,-33 -70,-68 -103,-104 -40,19 26,37 26,58 -17,21 -52,-38 -78,-46 -29,8 23,40 26,58 -22,-23 -63,-28 -90,-47 -31,18 48,33 64,47 -20,24 -54,-36 -102,-24 7,28 48,26 77,35 -25,29 -64,-26 -115,-11l0 45c25,0 51,0 76,0 -10,18 -31,26 -63,24 85,35 194,5 307,11 -60,25 153,76 244,69 -4,16 -32,10 -51,12 -6,10 75,39 128,35 -73,32 3,14 51,35 29,11 49,79 103,58 -35,37 116,33 77,137 -63,48 -77,139 -103,220l13 -23c41,-6 5,58 51,46 9,-35 9,-22 0,-58 19,10 28,29 26,58 45,-88 27,-170 64,-254 27,13 -23,59 26,69 -24,-2 -34,36 -39,81 56,-44 -11,12 0,58 62,-66 -30,59 39,58 0,-27 0,-54 0,-81 22,71 29,21 38,-35l13 35c43,-39 -45,-120 0,-162 43,101 43,224 36,350 -55,89 -86,181 -86,278 0,26 0,92 0,126l-117 0 0 424 -70 0 0 -54 -71 0 0 -379 27 0 39 -28 10 0 0 -59 -110 0 0 -60 -31 0 0 -152 26 0 0 -29 -37 0c0,0 2,-5 2,-56 0,-49 -31,-94 -74,-133l-16 -13 2 0 7 -7 -45 -26 0 -9c0,0 -34,-11 -35,-38 -1,-26 7,-28 7,-28 0,0 22,-7 -1,-21l-12 -20 -2 -78 14 -5 -15 -5 -3 -67 1 0c37,0 66,-24 66,-54l-23 -40 12 28c0,26 -24,46 -55,46 -30,0 -56,-20 -56,-46l12 -28 -22 40c0,30 29,53 65,54l-3 67 -14 5 13 5 -1 79 -13 19c-22,14 0,21 0,21 0,0 7,2 6,28 -1,27 -35,38 -35,38l0 9 -43 26 7 7 2 0 -16 13c-43,39 -74,84 -74,133 0,51 2,56 2,56l-37 0 0 29 26 0 0 152 -31 0 0 60 -110 0 0 59 10 0 39 28 27 0 0 379 -71 0 0 54 -74 0 0 131 -84 0 0 442 -35 28 -7 6 -9 7 0 2142 29672 0zm-17872 -5176c-36,16 -57,12 0,0zm-1388 -151l2 -1 0 23 -2 -22zm2 22l0 34c-26,-7 -7,-18 0,-34zm-132 151l4 -1 2 8 -6 -7zm6 7l11 16 -11 -16zm-8207 719c-36,16 -57,11 0,0zm-1388 -151l2 -2 0 24 -2 -22zm2 22l0 34c-26,-7 -7,-18 0,-34zm-132 150l4 0 2 8 -6 -8zm6 8l11 15 -11 -15z"/>
   <path class="fil23" d="M11661 16131c-6079,29 -8448,2064 -11633,3151l0 1718 29672 0 0 -4356c-5687,2147 -10398,-551 -18039,-513z"/>
   <path class="fil24" d="M14103 18256c-5121,-219 -9603,-2463 -14075,1313l0 1431 29672 0 0 -5235c-5750,-1310 -9016,2774 -15597,2491z"/>
   <path class="fil25" d="M29700 18592c-1230,-440 -4447,-604 -7275,599 -3585,1525 -7705,2186 -12069,-220 -3195,-1761 -6721,-3423 -10328,-2259l0 4288 29672 0 0 -2408z"/>
  </g>
 </g>
</svg>
