<?xml version="1.0" encoding="UTF-8"?>
<!DOCTYPE svg PUBLIC "-//W3C//DTD SVG 1.1//EN" "http://www.w3.org/Graphics/SVG/1.1/DTD/svg11.dtd">
<!-- Creator: CorelDRAW X8 -->
<svg xmlns="http://www.w3.org/2000/svg" xml:space="preserve" width="75.818mm" height="50mm" version="1.1" style="shape-rendering:geometricPrecision; text-rendering:geometricPrecision; image-rendering:optimizeQuality; fill-rule:evenodd; clip-rule:evenodd"
viewBox="0 0 7582 5000"
 xmlns:xlink="http://www.w3.org/1999/xlink">
 <defs>
  <style type="text/css">
   <![CDATA[
    .fil4 {fill:#00A0E3}
    .fil1 {fill:#008DD2}
    .fil2 {fill:url(#id0)}
    .fil3 {fill:url(#id1)}
    .fil0 {fill:url(#id2)}
   ]]>
  </style>
  <linearGradient id="id0" gradientUnits="userSpaceOnUse" x1="3647.97" y1="-718.65" x2="3647.97" y2="4562.41">
   <stop offset="0" style="stop-opacity:1; stop-color:#1082AE"/>
   <stop offset="0.14902" style="stop-opacity:1; stop-color:#3C418E"/>
   <stop offset="0.768627" style="stop-opacity:1; stop-color:#67C7EF"/>
   <stop offset="1" style="stop-opacity:1; stop-color:#86CEE0"/>
  </linearGradient>
  <radialGradient id="id1" gradientUnits="userSpaceOnUse" gradientTransform="matrix(3.3908E-15 -55.376 -53.6964 -3.28796E-15 292866 250056)" cx="4418.59" cy="5371.83" r="4.63" fx="4418.59" fy="5371.83">
   <stop offset="0" style="stop-opacity:1; stop-color:#86CEE0"/>
   <stop offset="0.231373" style="stop-opacity:1; stop-color:#67C7EF"/>
   <stop offset="0.85098" style="stop-opacity:1; stop-color:#753D8D"/>
   <stop offset="1" style="stop-opacity:1; stop-color:#712E85"/>
  </radialGradient>
  <radialGradient id="id2" gradientUnits="userSpaceOnUse" gradientTransform="matrix(0.817558 0.781872 0.781858 -0.817546 -1143 1220)" xlink:href="#id1" cx="4018.25" cy="2400" r="221.59" fx="4018.25" fy="2400">
  </radialGradient>
 </defs>
 <g id="Katman_x0020_1">
  <metadata id="CorelCorpID_0Corel-Layer"/>
  <path class="fil0" d="M5726 4321l0 0 27 -18 -16 -38 -38 15 16 39 11 2zm-3869 2l0 0 11 -2 15 -39 -38 -16 -15 39 -1 0 28 18zm3829 75l0 0 25 -13 0 0 -9 -41 -41 9 9 41 16 4zm-3789 2l0 0 16 -5 9 -40 -41 -9 -9 40 25 14zm3736 68l0 0 22 -10 -2 -41 -42 2 3 42 19 7zm-3683 2l0 0 19 -8 3 -41 -42 -2 -2 41 22 10zm3620 59l0 0 19 -7 4 -41 -41 -4 -4 41 22 11zm-3557 1l0 0 23 -11 -4 -41 0 -1 -42 5 5 41 18 7zm3486 48l0 0 14 -4 11 -40 -40 -11 -11 40 26 15zm-3414 1l0 0 26 -15 -12 -40 -39 11 11 40 14 4zm944 27l1 0 28 -30 -30 -29 -28 30 29 29zm1526 0l0 0 29 -29 -29 -30 -30 29 29 30 1 0zm-86 1l0 0 28 -31 -31 -28 -28 31 31 28zm-1353 0l0 0 30 -28 -28 -31 -31 28 27 31 2 0zm-174 3l2 0 27 -31 -32 -28 -27 32 30 27zm1700 0l0 0 29 -26 -27 -32 -31 27 26 31 3 0zm777 5l0 0 11 -2 0 0 17 -38 -38 -17 -17 38 27 19zm-1038 1l0 0 4 -1 24 -33 -33 -25 -25 34 30 25zm-2217 0l0 0 28 -19 -17 -38 -38 17 17 38 10 2zm1039 0l0 0 29 -24 -24 -35 -34 25 25 34 4 0zm-348 4l0 0 3 -1 26 -32 -33 -26 -25 33 29 26zm1874 0l0 0 29 -26 -26 -33 -32 26 25 33 4 0zm-1961 12l0 0 5 -1 24 -33 -33 -25 -25 33 29 26zm2048 0l0 0 28 -26 -24 -33 -34 25 25 34 5 0zm-521 2l0 0 7 -1 21 -36 -36 -21 -20 36 28 22zm-1006 0l0 0 28 -22 -21 -36 -36 21 21 36 8 1zm2047 7l0 0 7 -1 21 -35 -35 -22 -22 36 29 22zm-3088 0l0 0 28 -22 -21 -35 -36 22 22 35 7 0zm434 4l0 0 4 -1 25 -33 -34 -25 -24 34 29 25zm2220 0l0 0 29 -25 -25 -33 -33 24 24 34 5 0zm-2307 11l0 0 3 0 26 -32 -32 -27 -26 33 29 26zm2393 0l0 0 30 -26 -26 -32 -33 26 26 32 3 0zm262 1l4 0 25 -33 -33 -26 -25 33 29 26zm-2916 0l0 0 29 -26 -26 -33 -32 26 25 33 4 0zm1878 3l0 0 10 -2 17 -38 -37 -17 -18 38 28 19zm-840 0l0 0 27 -19 -17 -38 -37 18 17 38 10 1zm-864 3l1 0 28 -31 -30 -28 -28 31 29 28zm2567 0l0 0 30 -28 -28 -31 -31 28 28 31 1 0zm88 1l1 0 29 -31 -31 -28 -28 30 29 29zm-2743 0l0 0 30 -29 -28 -30 -31 28 29 31zm1711 30l0 0 13 -3 14 -39 -40 -14 0 1 -13 39 26 16zm-679 1l0 0 26 -16 -13 -40 -39 13 13 40 13 3zm603 43l0 0 16 -5 9 -41 -41 -9 -8 41 24 14zm-527 0l0 0 24 -13 -8 -40 -41 8 9 41 16 4zm458 52l0 0 19 -7 3 -41 -42 -3 -2 42 22 9zm-388 1l0 0 21 -9 -2 -42 -42 2 3 42 20 7zm328 63l0 0 24 -11 -6 -42 -41 6 6 41 17 6zm-270 2l0 0 18 -6 6 -41 -41 -6 -6 41 23 12zm24 -47l0 -1 0 1zm202 121l0 0 27 -18 -15 -39 -39 16 16 38 11 3zm-182 1l0 0 12 -3 15 -37 -38 -17 -16 39 27 18zm134 68l0 0 14 -4 11 -39 -40 -12 0 0 -11 40 26 15zm-84 1l0 0 26 -16 -13 -39 -39 12 12 40 14 3zm2022 -771l8 -21 -2 -11 -6 -10 -5 -4 -5 -2 -5 -2 -27 8 -6 10 -2 11 8 21 21 9 21 -9zm692 -426l0 0 30 -29 -30 -30 -29 29 29 30 0 0zm-8 90l0 0 29 -25 -24 -34 -34 24 24 34 5 1zm-24 86l0 0 28 -19 -17 -38 -39 17 18 38 10 2zm-41 80l0 0 25 -13 -8 -41 -41 9 8 40 16 5zm-56 70l0 0 21 -9 0 0 0 -41 -42 0 1 41 20 9zm-68 58l0 0 17 -6 7 -40 -41 -8 -7 41 24 13zm-17 -54l0 0 0 0zm-61 98l0 0 12 -3 15 -39 -39 -14 -15 39 27 17zm-85 30l0 0 8 0 21 -36 -36 -22 -21 36 28 22zm-267 3l0 0 29 -23 -22 -35 -35 22 22 35 6 1zm179 12l3 0 26 -32 -32 -26 -26 31 29 27zm-90 1l0 0 29 -27 -27 -31 -31 27 27 31 2 0zm553 -572l8 -21 -8 -21 -27 -8 -5 2 -5 3 -5 3 -6 10 -2 11 2 11 6 10 10 6 11 3 21 -9zm67 -2358l0 0 29 -24 -24 -34 -34 24 24 34 5 0zm85 24l0 0 27 -18 -16 -38 -38 16 16 38 11 2zm77 43l0 0 24 -13 -7 -41 -41 7 7 41 17 6zm66 59l0 0 19 -7 3 -42 -41 -3 -3 41 22 11zm48 73l0 0 13 -3 14 -39 -40 -14 -13 40 26 16zm32 83l0 0 8 -2 20 -36 -36 -20 -20 36 28 22zm19 86l0 0 5 -1 24 -33 -34 -24 -24 33 29 25zm12 87l0 0 4 0 25 -33 -33 -25 -25 33 29 25zm14 88l0 0 7 -1 22 -35 -35 -22 -22 35 28 23zm25 84l0 0 10 -1 17 -38 -37 -18 -18 38 0 0 28 19zm35 81l0 0 13 -3 13 -39 -40 -13 -13 40 27 15zm45 77l0 0 16 -6 8 -40 -41 -8 -8 41 25 13zm53 70l0 0 19 -7 4 -42 -42 -3 -3 41 22 11zm62 63l0 0 21 -9 -1 -42 -42 2 2 42 20 7zm68 56l0 0 24 -12 -6 -41 -42 6 7 41 17 6zm75 47l0 0 26 -15 -12 -40 -40 12 12 40 14 3zm80 37l0 0 28 -19 -18 -38 -37 18 16 37 11 2zm84 26l0 0 29 -23 -22 -35 -35 22 22 36 6 0zm85 22l0 0 25 -14 -9 -40 -40 9 9 41 15 4zm42 74l0 0 29 -30 -29 -29 -30 30 30 29zm-41 74l0 0 16 -4 0 0 9 -41 -41 -9 0 1 -8 40 24 13zm-85 23l0 0 7 -1 0 0 22 -35 -35 -23 -22 36 28 23zm-84 25l0 0 11 -1 16 -38 -38 -17 -16 38 27 18zm-80 38l0 0 14 -4 12 -40 -40 -12 -12 40 26 16zm-75 47l0 0 17 -6 7 -41 -41 -7 -7 41 24 13zm-68 55l0 0 20 -7 1 -42 -41 -2 -2 42 22 9zm-62 63l0 0 23 -9 0 -1 -4 -41 -41 3 3 42 19 6zm-54 71l0 0 25 -13 -8 -41 -41 8 8 41 16 5zm-45 76l0 0 26 -16 -12 -40 -40 13 0 0 13 39 13 4zm-35 81l0 0 28 -20 -18 -37 -38 17 18 38 10 2zm-25 84l0 0 29 -23 -22 -35 -35 23 22 35 6 0zm-14 87l0 0 29 -25 -25 -33 -33 26 25 32 4 0zm-12 88l0 0 29 -25 -24 -33 -34 24 0 0 24 34 5 0zm-19 86l0 0 29 -21 -21 -36 -36 20 20 36 8 1zm-31 83l0 0 26 -16 -13 -40 -39 13 13 40 13 3zm-48 73l0 0 22 -10 -3 -41 -42 3 4 41 19 7zm-66 60l0 0 18 -5 6 -41 -40 -7 -8 41 24 12zm-77 42l0 0 11 -2 16 -38 -38 -16 -16 38 27 18zm-84 25l0 0 5 0 23 -35 -34 -23 -23 34 29 24zm-69 -2375l8 -20 -8 -21 -42 0 -8 21 8 20 21 9 21 -9zm-553 -555l0 0 1 0 28 -31 -31 -28 -28 32 30 27zm90 1l0 0 29 -27 -27 -32 -32 27 27 32 3 0zm-179 12l0 0 6 0 22 -36 -35 -22 -22 36 29 22zm267 3l0 0 28 -22 -21 -36 -36 21 21 36 8 1zm84 30l0 0 27 -17 -14 -39 -39 14 14 39 12 3zm78 44l0 0 24 -12 -7 -41 -41 7 8 41 16 5zm69 58l0 0 20 -8 1 -42 -42 0 0 41 21 9zm56 70l0 0 16 -5 9 -40 -41 -9 -8 41 24 13zm41 80l0 0 11 -2 16 -38 -38 -17 -17 38 28 19zm24 86l0 0 5 0 24 -34 -34 -24 -24 34 29 24zm8 90l0 0 30 -30 -30 -29 -29 30 29 29zm-707 -435l5 -1 5 -3 5 -4 8 -20 -8 -21 -5 -4 -5 -2 -5 -2 -17 2 -10 6 -6 9 -2 12 8 20 10 7 11 2 6 -1zm-1925 -762l0 0 26 -15 -12 -40 -40 12 12 40 14 3zm-84 1l0 0 14 -3 12 -40 -40 -12 -11 40 25 15zm134 68l0 0 11 -2 16 -39 -39 -15 -15 38 27 18zm-183 2l0 0 27 -18 -15 -39 -39 16 16 39 11 2zm226 74l0 0 18 -6 6 -41 -41 -6 -6 41 23 12zm-269 1l0 0 23 -12 -6 -41 -41 6 6 41 18 6zm329 63l0 0 21 -10 -2 -41 -41 2 2 41 20 8zm-389 1l0 0 20 -8 0 0 2 -41 -41 -2 -3 41 22 10zm458 52l0 0 24 -13 -8 -41 -41 8 9 41 16 5zm-527 1l0 0 16 -5 8 -41 -41 -8 -8 40 25 14zm603 42l0 0 26 -16 -13 -40 -40 14 14 39 13 3zm-679 1l0 0 13 -3 13 -39 -39 -14 -14 40 27 16zm1710 31l0 0 30 -29 -29 -30 -30 28 28 31 1 0zm-2742 0l1 0 29 -31 -31 -28 -28 30 29 29zm87 0l0 0 30 -27 -28 -31 -31 28 28 30 1 0zm2568 1l1 0 28 -31 -30 -28 -29 31 30 28zm-864 2l0 0 28 -19 -18 -38 -38 17 18 38 10 2zm-840 0l0 0 11 -1 17 -38 -38 -18 0 0 -17 38 27 19zm1878 3l0 0 29 -25 -25 -33 -33 25 26 33 3 0zm-2916 1l0 0 4 -1 25 -33 -33 -25 -25 33 29 26zm262 0l0 0 29 -26 -27 -32 -32 26 26 32 4 0zm2393 0l0 0 3 0 26 -32 -32 -26 -27 32 30 26zm-2307 12l0 0 29 -26 -24 -33 -34 24 25 34 0 0 4 1zm2220 0l0 0 5 -1 24 -33 -33 -25 -25 34 29 25zm434 3l0 0 29 -23 -22 -35 -35 21 22 36 6 1zm-3088 0l0 0 7 0 22 -36 -36 -22 -22 36 29 22zm2047 7l0 0 29 -22 -21 -36 -36 22 21 35 7 1zm-1006 1l0 0 7 -1 22 -36 -36 -21 -21 36 28 22zm-520 2l0 0 29 -25 -25 -34 -34 25 25 33 5 1zm2047 0l0 0 4 -1 25 -33 -34 -25 -24 34 29 25zm-1961 12l0 0 29 -26 -25 -33 -33 26 25 33 4 0zm1874 0l0 0 4 0 25 -33 -33 -26 -25 33 29 26zm-348 3l0 0 29 -25 -24 -33 -34 24 24 34 5 0zm-1177 0l0 0 4 0 24 -33 -33 -25 -24 34 29 24zm2216 0l0 0 27 -18 -17 -38 -37 17 16 37 0 0 11 2zm-3255 1l0 0 10 -2 17 -38 -38 -17 -17 38 28 19zm777 5l0 0 29 -27 -27 -32 -31 27 26 32 0 0 3 0zm1700 0l2 0 28 -32 -32 -27 -27 32 29 27zm-176 3l0 0 31 -27 -27 -31 -32 27 28 31zm-1350 0l2 0 28 -31 -31 -27 -28 31 29 27zm-87 2l0 0 29 -29 -28 -30 0 0 -30 29 29 30zm1526 0l0 0 1 0 28 -30 -30 -29 -28 30 29 29zm944 26l0 0 26 -15 -12 -39 -39 10 10 41 15 3zm-3413 1l0 0 14 -4 11 -40 -40 -11 -11 40 26 15zm3485 48l0 0 23 -10 -5 -42 -41 5 5 41 18 6zm-3557 2l0 0 18 -7 4 -41 -41 -4 -4 41 23 11zm3620 59l0 0 20 -8 2 -41 0 0 -42 -3 -2 42 0 0 22 10zm-3684 1l0 0 23 -10 -3 -41 -41 2 2 42 19 7zm3737 68l0 0 16 -4 9 -41 -41 -9 -9 41 25 13zm-3789 2l0 0 25 -14 -9 -41 -41 10 9 40 16 5zm3830 76l0 0 11 -3 15 -38 -38 -16 -16 39 28 18zm-3870 1l0 0 27 -18 -16 -38 -38 16 16 38 11 2zm-14 82l10 -7 6 -9 2 -11 -2 -12 -6 -9 -10 -6 -32 6 -9 21 9 20 21 9 11 -2zm-186 -38l0 0 29 -27 -27 -32 -32 28 28 31 2 0zm-90 1l0 0 3 0 26 -32 -31 -27 -27 32 29 27zm178 12l0 0 29 -23 -22 -35 -35 22 22 36 6 0zm7 -58l0 0 0 0zm-273 61l0 0 7 -1 21 -36 -36 -21 -21 36 29 22zm-85 30l0 0 12 -2 14 -40 -38 -14 -15 39 27 17zm-78 45l0 0 17 -5 7 -42 -41 -7 -7 41 24 13zm-69 58l0 0 21 -9 0 -42 -41 0 0 42 20 9zm-56 70l0 0 25 -14 -9 -41 -40 9 8 41 16 5zm-40 79l0 0 27 -18 -17 -38 -38 16 17 38 11 2zm-24 87l0 0 29 -24 -24 -34 -34 23 24 34 5 1zm-8 89l0 0 29 -29 -29 -30 -30 30 29 29 1 0zm27 81l6 -9 2 -11 -8 -21 -32 -7 -10 7 -6 9 -2 12 2 11 6 9 10 6 11 3 21 -9zm-111 14l0 0 5 0 24 -34 -34 -24 0 0 -24 34 29 24zm-84 25l0 0 11 -2 16 -39 -39 -16 -16 39 28 18zm-78 42l0 0 17 -5 7 -41 -41 -7 -6 41 23 12zm-65 60l0 0 23 -11 -4 -41 -41 3 3 42 19 7zm-48 73l0 0 26 -16 -13 -39 -39 13 13 39 13 3zm-31 83l0 0 28 -22 -20 -36 -37 20 21 37 8 1zm-19 86l0 0 29 -24 -24 -34 -34 24 24 34 5 0zm-12 88l0 0 29 -26 -25 -33 -33 26 25 32 4 1zm-15 87l0 0 29 -23 -22 -35 -35 23 22 34 6 1zm-24 85l0 0 27 -20 -17 -37 -38 17 18 38 10 2zm-35 81l0 0 26 -16 -13 -40 -39 13 12 39 14 4zm-46 76l0 0 25 -13 -8 -41 -41 8 0 0 8 41 16 5zm-53 69l0 0 22 -9 -3 -42 -41 3 2 41 20 7zm-62 64l0 0 20 -8 2 -41 -42 -2 -1 42 21 9zm-68 56l0 0 17 -6 7 -41 -42 -7 -6 42 24 12zm-75 47l0 0 14 -4 12 -40 -40 -11 -12 39 26 16zm-80 37l0 0 10 -2 17 -38 -37 -17 -18 38 28 19zm-85 25l0 0 7 0 22 -36 -35 -21 -22 34 28 23zm-85 23l0 0 16 -5 9 -41 -40 -8 -9 40 24 14zm-40 74l1 0 29 -29 -30 -29 -29 29 29 29zm41 74l0 0 25 -14 -9 -40 -40 9 9 41 15 4zm85 22l0 0 29 -23 -22 -35 -35 22 22 35 6 1zm85 26l0 0 27 -19 -17 -38 -38 17 17 38 11 2zm80 37l0 0 26 -15 -12 -40 0 0 0 0 0 0 -40 12 12 39 14 4zm75 47l0 0 23 -12 -6 -41 -41 7 6 41 18 5zm68 56l0 0 22 -9 -2 -42 -42 2 2 41 20 8zm61 63l0 0 20 -7 3 -41 -42 -3 -3 41 22 10zm54 71l0 0 17 -6 8 -40 -41 -8 -8 41 24 13zm45 76l0 0 14 -4 12 -39 -39 -13 -13 40 26 16zm35 81l0 0 10 -2 18 -38 -38 -17 -17 38 27 19zm25 85l0 0 6 -1 23 -35 -35 -23 -23 36 29 23zm14 87l0 0 4 0 25 -34 -33 -25 -25 34 29 25zm12 87l0 0 5 0 24 -34 -33 -24 -25 34 29 24zm19 87l0 0 8 -2 20 -36 -36 -20 -20 36 28 22zm32 82l0 0 13 -3 13 -40 -39 -13 -14 40 27 16zm48 74l0 0 19 -8 4 -41 -42 -3 -3 42 22 10zm65 59l0 0 24 -13 -6 -40 -41 7 7 40 16 6zm78 42l0 0 27 -18 -16 -39 -38 17 16 38 11 2zm85 24l0 0 29 -24 -24 -34 0 0 -34 24 24 34 5 0zm99 3l10 -6 6 -10 2 -11 -2 -11 -6 -10 -5 -3 -5 -3 -5 -2 -17 2 -10 6 -6 10 -3 11 9 21 10 6 11 3 11 -3zm-17 93l0 0 29 -30 -30 -29 -29 30 30 29zm8 89l0 0 5 0 24 -35 -34 -24 -24 35 29 24zm24 86l0 0 11 -2 16 -38 -37 -16 -18 38 28 18zm41 80l0 0 15 -4 9 -41 -40 -9 -9 41 25 13zm56 70l0 0 21 -8 0 -42 -42 0 0 42 21 8zm69 58l0 0 23 -13 -7 -40 -41 7 8 41 17 5zm77 44l0 0 27 -17 -14 -39 -39 15 14 39 12 2zm85 30l0 0 28 -22 -21 -36 -36 22 22 36 7 0zm267 3l0 0 7 -1 0 0 22 -35 -36 -22 -22 35 29 23zm-178 13l0 0 29 -28 -27 -31 -32 26 27 32 3 1zm89 0l2 0 28 -31 -32 -27 -27 31 29 27zm175 -39l-11 -3 -10 -6 -9 -21 9 -21 10 -6 32 6 8 21 -8 21 -10 6 -11 3z"/>
  <path class="fil1" d="M3056 4444c47,0 95,2 142,8 222,29 476,143 593,337 117,-194 371,-308 593,-337 179,-23 356,5 526,31l9 2c134,20 332,39 494,-41 133,-65 248,-228 203,-379l18 -50 52 3c145,123 404,146 558,-14 142,-147 79,-387 31,-442l4 -61 61 0c39,38 98,56 162,50 74,-6 144,-44 183,-98 45,-63 56,-145 67,-232l14 -94c53,-280 267,-527 527,-629 -260,-102 -474,-348 -527,-629l-14 -94c-11,-86 -22,-168 -67,-231 -39,-55 -109,-92 -183,-99 -64,-6 -123,13 -162,50l-61 1 -4 -61c48,-56 111,-295 -31,-442 -154,-160 -413,-137 -558,-15l-52 4 -18 -50c45,-151 -70,-315 -203,-380 -162,-79 -360,-61 -494,-40l-9 1c-171,27 -347,54 -526,31 -222,-28 -476,-143 -593,-337 -117,194 -371,309 -593,337 -179,23 -355,-4 -526,-31l-9 -1c-134,-21 -332,-39 -494,40 -133,65 -248,229 -203,380l-18 50 -53 -4c-144,-122 -403,-145 -557,15 -142,147 -79,386 -32,442l-3 61 -61 -1c-39,-37 -98,-56 -162,-50 -74,7 -144,44 -183,99 -45,63 -56,145 -67,231l-14 94c-53,281 -267,527 -527,629 260,102 474,349 527,629l14 94c11,87 22,169 67,232 39,54 109,92 183,98 64,6 123,-12 162,-50l61 0 3 61c-47,55 -110,295 32,442 154,160 413,137 557,14l53 -3 18 50c-45,151 70,314 203,379 162,80 359,61 494,41l8 -2c126,-20 255,-39 385,-39zm735 493l-42 -30c-73,-212 -343,-339 -563,-367 -166,-22 -329,4 -501,30l-8 2c-147,22 -363,42 -547,-48 -139,-69 -258,-219 -262,-381 -178,95 -427,94 -594,-78 -124,-129 -127,-308 -94,-434l-108 8c-101,-9 -193,-60 -247,-135 -57,-81 -70,-178 -82,-271l-14 -89c-57,-303 -323,-561 -617,-602l-39 -44 39 -43c294,-41 560,-300 617,-602l14 -90c12,-93 25,-189 82,-271 54,-75 146,-126 247,-135l108 8c-33,-126 -30,-305 94,-433 167,-173 416,-173 594,-78 4,-162 123,-313 262,-381 184,-90 400,-71 547,-48l8 1c172,27 335,52 501,31 220,-29 490,-156 563,-368l42 -29 42 29c72,212 342,339 563,368 166,21 329,-4 501,-31l8 -1c147,-23 363,-42 547,48 139,68 258,219 262,381 178,-95 427,-95 594,78 124,128 127,307 93,433l109 -8c100,9 193,60 246,135 58,82 71,178 83,271l14 90c57,302 323,561 617,602l39 43 -39 44c-294,41 -560,299 -617,602l-14 89c-12,93 -25,190 -83,271 -53,75 -146,126 -246,135l-109 -8c34,126 31,305 -93,434 -167,172 -416,173 -594,78 -4,162 -123,312 -262,381 -184,90 -400,70 -547,48l-8 -2c-172,-26 -335,-52 -501,-30 -221,28 -491,155 -563,367l-42 30z"/>
  <path class="fil1" d="M3056 4348c54,0 104,3 154,10 229,29 445,132 581,276 136,-144 351,-247 581,-276 50,-7 100,-10 154,-10 137,0 270,21 399,41l8 1c74,12 138,17 196,17 96,0 176,-16 242,-48 97,-47 183,-168 153,-267 -17,-59 6,-123 58,-157 50,-33 120,-28 166,10 57,48 138,77 219,77 58,0 141,-15 209,-85 101,-105 48,-288 26,-314 -47,-56 -43,-141 12,-192l95 -38 97 40 72 24c52,0 104,-24 129,-60 31,-43 41,-113 50,-188l15 -99c46,-245 200,-471 413,-612 -213,-140 -367,-366 -413,-611l-15 -100c-9,-74 -19,-144 -50,-188 -25,-36 -77,-59 -129,-59l-72 24 -95 39 -95 -38c-55,-49 -60,-133 -14,-191 22,-27 75,-210 -26,-315 -68,-69 -151,-84 -209,-84 -81,0 -162,29 -219,76 -46,39 -116,43 -166,10 -52,-33 -75,-98 -58,-156 30,-99 -56,-220 -153,-267 -66,-33 -146,-49 -242,-49 -58,0 -122,6 -196,17l-8 2c-129,20 -262,40 -399,40 -54,0 -104,-3 -154,-9 -230,-30 -445,-132 -581,-277 -136,145 -352,247 -581,277 -50,6 -100,9 -154,9 -137,0 -270,-20 -399,-40l-8 -2c-75,-11 -138,-17 -196,-17 -96,0 -176,16 -242,49 -97,47 -183,168 -153,267 17,58 -6,123 -58,156 -50,33 -120,29 -166,-10 -57,-47 -138,-76 -219,-76 -58,0 -141,15 -209,84 -101,105 -48,288 -27,315 48,56 44,141 -11,191l-95 38 -98 -39 -71 -24c-51,0 -104,24 -129,59 -31,44 -41,114 -50,188l-15 100c-47,245 -200,471 -413,611 213,141 366,367 413,612l15 99c9,74 19,144 50,188 25,36 78,60 129,60l71 -24 96 -39 95 37c54,50 60,134 14,192 -22,26 -75,209 26,314 68,70 151,85 209,85 81,0 162,-29 219,-77 46,-38 116,-43 166,-10 52,34 75,98 58,157 -30,99 56,220 153,267 66,32 146,48 242,48 58,0 121,-5 196,-17l8 -1c129,-20 262,-41 399,-41zm735 341l-17 -8c-126,-143 -344,-251 -570,-279 -48,-7 -96,-10 -148,-10 -134,0 -265,21 -392,40l-9 1c-76,13 -142,18 -202,18 -104,0 -189,-17 -261,-53 -115,-56 -213,-197 -177,-319 12,-40 -4,-84 -39,-107l-114 7c-64,54 -156,87 -247,87 -66,0 -162,-18 -240,-98 -123,-127 -60,-336 -30,-373 32,-39 28,-98 -9,-131l-130 0 -102 37c-65,0 -132,-31 -165,-78 -38,-53 -48,-128 -58,-208l-15 -97c-46,-244 -204,-469 -421,-601l-11 -19 11 -18c217,-133 375,-357 421,-601l15 -97c10,-80 20,-156 58,-209 33,-46 100,-78 165,-78l102 37 132 1c37,-35 41,-92 7,-131 -30,-37 -93,-247 30,-373 78,-81 174,-98 240,-98 91,0 183,32 247,87l114 7c35,-23 51,-68 39,-108 -36,-121 62,-263 177,-319 72,-35 158,-53 261,-53 60,0 126,6 202,18l9 1c127,20 258,40 392,40 52,0 100,-3 148,-9 226,-29 444,-136 570,-280l17 -7 16 7c127,144 345,251 571,280 48,6 96,9 148,9 134,0 265,-20 392,-40l8 -1c77,-12 143,-18 203,-18 103,0 189,18 262,53 114,56 212,198 176,319 -13,40 4,85 39,108l114 -7c64,-55 156,-87 247,-87 66,0 162,17 240,98 123,126 60,336 30,373 -33,39 -29,97 9,131l130 -1 102 -37c65,0 131,32 165,78 38,53 47,129 58,209l15 97c46,244 204,468 421,601l11 18 -11 19c-217,132 -375,357 -421,601l-15 97c-11,80 -20,155 -58,208 -34,47 -100,78 -165,78l-102 -37 -132 0c-37,34 -41,92 -8,131 31,37 94,246 -29,373 -78,80 -174,98 -240,98 -91,0 -183,-33 -247,-87l-114 -7c-35,23 -52,67 -39,107 36,122 -62,263 -176,319 -73,36 -159,53 -262,53 -60,0 -126,-5 -203,-18l-8 -1c-127,-19 -258,-40 -392,-40 -52,0 -100,3 -148,10 -226,28 -444,136 -571,279l-16 8z"/>
  <path class="fil2" d="M1740 3943l-5 0 0 3c-37,15 -79,24 -120,24 -48,0 -117,-12 -172,-68 -76,-79 -35,-226 -22,-248 62,-80 54,-193 -20,-261 -36,-33 -82,-50 -130,-50 -49,0 -96,19 -131,53l-36 10c-39,0 -74,-20 -87,-39 -24,-33 -32,-97 -41,-165l-16 -102c-44,-234 -182,-453 -375,-602 193,-149 331,-367 375,-601l16 -103c9,-68 17,-132 41,-165 13,-18 48,-38 87,-38l36 10c36,34 83,54 133,54 48,0 95,-19 130,-52 74,-69 81,-183 18,-260 -14,-24 -54,-169 22,-248 9,-9 19,-17 28,-25l10 0 0 -7c46,-30 97,-37 134,-37 68,0 139,25 186,65 34,29 78,45 123,45l104 -32c71,-45 103,-134 79,-214 -22,-72 49,-168 127,-206 34,-17 74,-29 118,-36l17 0 0 -2c26,-3 54,-5 84,-5 27,0 55,1 85,4l0 3 33 0c22,2 45,5 70,9l8 2c131,20 266,41 407,41 56,0 109,-4 160,-10 222,-29 431,-122 575,-255 144,133 353,226 574,255 52,6 105,10 161,10 141,0 276,-21 407,-41l8 -2c25,-3 48,-7 70,-9l19 0 0 -2c36,-4 68,-5 99,-5 88,0 160,14 220,43 77,38 148,134 126,206 -24,80 8,169 78,214l105 32c45,0 89,-16 123,-46 47,-39 118,-64 186,-64 48,0 117,12 172,69 76,79 35,225 22,248 -62,79 -54,193 20,260 36,33 82,51 130,51 49,0 96,-19 131,-53l36 -10c39,0 74,20 87,38 24,33 32,97 41,165l16 103c44,234 181,452 374,601 -193,149 -330,368 -374,602l-16 102c-9,68 -17,132 -41,165 -13,19 -48,39 -87,39l-36 -10c-36,-35 -83,-54 -133,-54 -48,0 -95,18 -130,52 -74,69 -81,182 -18,260 14,24 54,169 -22,248 -55,56 -124,68 -172,68 -68,0 -139,-24 -186,-64 -34,-29 -78,-45 -123,-45l-105 31c-70,46 -102,134 -78,215 22,71 -49,168 -126,205 -60,29 -132,44 -220,44 -55,0 -116,-6 -188,-17l-8 -1c-131,-20 -266,-41 -407,-41 -56,0 -109,3 -161,10 -221,28 -430,122 -574,255l0 0c-144,-133 -353,-227 -575,-255 -51,-7 -104,-10 -160,-10 -141,0 -276,20 -407,41l-8 1c-72,11 -133,17 -188,17 -89,0 -161,-15 -220,-44 -77,-37 -148,-134 -126,-205 24,-81 -8,-169 -79,-215l-104 -31c-45,0 -89,16 -123,45 -18,15 -38,27 -61,37z"/>
  <polygon class="fil3" points="6644,2455 6602,2479 6634,2443 6598,2410 6642,2429 6662,2385 6658,2433 6706,2438 6659,2449 6669,2496 "/>
  <path class="fil4" d="M3056 4282c57,0 110,3 162,10 218,28 426,119 573,250 147,-131 355,-222 573,-250 52,-7 105,-10 162,-10 142,0 278,21 409,41l8 2c71,11 132,16 186,16 86,0 156,-14 213,-42 71,-34 138,-124 119,-188 -26,-87 9,-182 84,-231 75,-49 178,-42 246,15 44,37 111,61 176,61 45,0 110,-12 161,-65 69,-71 33,-208 21,-230 -67,-81 -59,-205 20,-278 38,-36 88,-56 140,-56 54,0 105,21 143,58l26 6 75 -32c22,-30 30,-92 39,-158l15 -104c44,-230 177,-447 366,-599 -189,-151 -322,-369 -366,-599l-15 -103c-9,-66 -17,-128 -39,-158l-75 -32 -26 5c-38,37 -88,58 -141,58 -52,0 -101,-20 -140,-55 -79,-72 -89,-195 -21,-280 11,-21 48,-157 -22,-229 -51,-53 -116,-64 -161,-64 -65,0 -132,23 -176,61 -68,57 -171,63 -246,15 -75,-50 -110,-145 -84,-231 19,-64 -48,-154 -119,-189 -57,-28 -127,-41 -213,-41 -54,0 -115,5 -186,16l-8 1c-131,20 -267,41 -409,41 -57,0 -110,-3 -162,-9 -218,-29 -426,-120 -573,-251 -147,131 -355,222 -573,251 -52,6 -105,9 -162,9 -142,0 -278,-21 -409,-41l-9 -1c-70,-11 -131,-16 -185,-16 -86,0 -156,13 -213,41 -71,35 -138,125 -119,188 26,87 -9,182 -84,232 -75,48 -178,42 -246,-15 -44,-38 -112,-61 -176,-61 -45,0 -110,11 -161,64 -69,71 -33,208 -21,231 67,81 59,204 -20,278 -38,35 -88,55 -140,55 -54,0 -105,-20 -143,-58l-26 -5 -75 32c-22,30 -30,92 -39,158l-16 103c-43,230 -176,448 -365,599 189,152 322,369 365,599l16 102c9,67 17,130 39,160l75 32 26 -6c38,-37 88,-57 141,-57 52,0 101,19 140,54 79,73 88,196 21,281 -11,20 -48,157 22,228 51,53 116,65 161,65 64,0 132,-24 176,-61 68,-57 171,-64 246,-15 75,49 110,145 84,231 -19,64 48,154 119,188 57,28 127,42 213,42 54,0 115,-5 185,-16l9 -2c131,-20 267,-41 409,-41zm735 300l-10 -9c-143,-132 -350,-224 -566,-252 -52,-6 -104,-10 -159,-10 -140,0 -274,21 -405,42l-8 1c-72,11 -134,16 -190,16 -91,0 -165,-14 -226,-44 -83,-41 -159,-143 -134,-223 22,-75 -8,-156 -73,-199 -63,-41 -152,-36 -210,13 -49,42 -124,68 -195,68 -51,0 -124,-13 -182,-73 -82,-85 -43,-235 -25,-266 59,-75 51,-180 -17,-242 -33,-30 -75,-47 -120,-47 -45,0 -88,18 -121,50l-46 13c-45,0 -84,-22 -99,-44 -26,-36 -35,-102 -44,-171l-15 -102c-44,-229 -178,-445 -370,-593l-15 -12 15 -11c192,-148 326,-364 370,-593l15 -102c9,-69 18,-135 44,-172 16,-22 55,-44 99,-44l46 14c33,32 77,50 123,50 45,0 87,-17 120,-48 68,-63 75,-168 16,-240 -19,-33 -57,-184 24,-267 58,-61 131,-73 182,-73 71,0 146,26 195,67 58,49 147,55 210,13 65,-42 95,-124 73,-198 -25,-81 51,-183 134,-223 61,-30 135,-45 226,-45 56,0 118,6 190,17l9 1c130,20 264,41 404,41 55,0 107,-3 159,-10 216,-28 423,-119 566,-251l10 -9 10 9c143,132 350,223 566,251 52,7 104,10 159,10 140,0 274,-21 404,-41l9 -1c72,-11 134,-17 190,-17 91,0 165,15 226,45 83,40 159,142 134,223 -22,74 8,156 73,198 63,42 152,36 210,-13 49,-41 124,-67 195,-67 51,0 124,12 182,73 82,84 42,235 25,265 -59,75 -51,181 17,243 33,30 75,46 120,46 45,0 88,-17 121,-49l46 -14c44,0 83,22 99,45 26,36 35,102 44,171l15 102c44,229 178,445 370,593l14 11 -14 12c-192,148 -326,364 -370,593l-15 102c-9,69 -18,135 -44,171 -16,22 -55,44 -99,44l-46 -13c-33,-33 -77,-50 -123,-50 -45,0 -87,17 -120,47 -68,63 -75,169 -16,241 18,33 57,183 -24,267 -58,60 -131,73 -182,73 -71,0 -146,-26 -195,-68 -58,-49 -147,-54 -210,-13 -65,43 -95,124 -73,199 25,80 -51,182 -134,223 -61,30 -135,44 -226,44 -56,0 -118,-5 -190,-16l-8 -1c-131,-21 -265,-42 -405,-42 -55,0 -107,4 -159,10 -216,28 -423,120 -566,252l-10 9z"/>
 </g>
</svg>
