<?xml version="1.0" encoding="UTF-8"?>
<!DOCTYPE svg PUBLIC "-//W3C//DTD SVG 1.1//EN" "http://www.w3.org/Graphics/SVG/1.1/DTD/svg11.dtd">
<!-- Creator: CorelDRAW X8 -->
<svg xmlns="http://www.w3.org/2000/svg" xml:space="preserve" width="144.155mm" height="190.543mm" version="1.1" style="shape-rendering:geometricPrecision; text-rendering:geometricPrecision; image-rendering:optimizeQuality; fill-rule:evenodd; clip-rule:evenodd"
viewBox="0 0 14416 19054"
 xmlns:xlink="http://www.w3.org/1999/xlink">
 <defs>
  <style type="text/css">
   <![CDATA[
    .fil2 {fill:#D56653;fill-rule:nonzero}
    .fil3 {fill:url(#id32)}
    .fil1 {fill:url(#id33)}
    .fil0 {fill:url(#id34)}
   ]]>
  </style>
    <clipPath id="id0" style="clip-rule:nonzero">
     <path d="M7208 18572c-40,-88 -96,-196 -172,-320 -200,-319 -552,-716 -1140,-1035 -64,-36 -128,-67 -196,-103l3016 0c-68,36 -132,67 -196,103l0 0c-592,319 -940,716 -1144,1035 -76,124 -128,232 -168,320zm-6137 -6419c-96,-123 -189,-257 -269,-391 -400,-659 -624,-1422 -624,-2236 0,-350 40,-695 120,-1020 252,31 508,47 773,52l0 3595zm12414 -195l0 -4863c44,67 89,134 129,201 400,659 624,1416 624,2230 0,814 -224,1577 -624,2236 -40,67 -85,129 -129,196zm-4361 -9808l-1744 0c-60,-52 -116,-103 -172,-155 -56,52 -112,103 -176,155l-160 0c-32,-314 -96,-618 -180,-912 148,-149 260,-299 344,-438 76,-118 132,-232 172,-319 40,87 92,201 168,319 204,320 552,721 1144,1036 192,103 392,206 604,314l0 0z"/>
    </clipPath>
    <clipPath id="id1" style="clip-rule:nonzero">
     <path d="M9524 3390l1478 0c-400,-400 -891,-712 -1381,-980 -167,-92 -335,-178 -498,-262l-1740 0c199,166 433,327 706,473 151,82 312,165 479,250 350,178 670,347 956,519zm-2638 -1125c-3,-39 -7,-78 -11,-117l158 0c-47,39 -96,78 -147,117l0 0z"/>
    </clipPath>
    <clipPath id="id2" style="clip-rule:nonzero">
     <path d="M10814 4644l966 0c-18,-58 -38,-115 -59,-170 -125,-329 -305,-616 -519,-869 -69,-80 -141,-157 -216,-231l-1490 0c614,368 1073,751 1318,1270z"/>
    </clipPath>
    <clipPath id="id3" style="clip-rule:nonzero">
     <path d="M11015 5889l1273 0c-105,-73 -213,-142 -324,-207 -27,-16 -43,-44 -43,-75 -1,-365 -53,-689 -146,-980l-969 0c136,281 209,601 209,982l0 280z"/>
    </clipPath>
    <clipPath id="id4" style="clip-rule:nonzero">
     <path d="M12376 7142l1111 0 0 -46c-323,-476 -739,-892 -1223,-1224l-1249 0 1 295 487 284c332,193 624,426 873,691z"/>
    </clipPath>
    <clipPath id="id5" style="clip-rule:nonzero">
     <path d="M12241 12048l0 1151c494,-336 918,-757 1246,-1241l0 -4834 -1127 0c622,654 974,1500 974,2404l0 0 0 0c0,958 -397,1853 -1093,2520z"/>
    </clipPath>
    <clipPath id="id6" style="clip-rule:nonzero">
     <path d="M2316 13290l0 -1112c-783,-680 -1234,-1630 -1234,-2651l0 0 0 0c0,-334 48,-661 140,-972 -45,0 -92,1 -138,1 -4,0 -10,0 -14,0l0 3598c338,446 761,831 1246,1136z"/>
    </clipPath>
    <clipPath id="id7" style="clip-rule:nonzero">
     <path d="M10996 13768l0 1903c228,-228 428,-482 582,-775 213,-402 342,-876 343,-1449 0,-31 16,-58 43,-75 100,-59 198,-120 294,-185l0 -1155c-222,216 -475,408 -755,572l-487 283 -1 559c0,112 -7,220 -19,322z"/>
    </clipPath>
    <clipPath id="id8" style="clip-rule:nonzero">
     <path d="M2299 12162l0 1117c50,32 101,63 152,93 27,16 44,45 44,75 1,430 73,803 199,1134 126,329 305,615 520,868 107,127 224,244 347,355l0 -1487c-105,-254 -160,-540 -161,-871l-1 -558 -487 -285c-222,-129 -427,-277 -613,-441z"/>
    </clipPath>
    <clipPath id="id9" style="clip-rule:nonzero">
     <path d="M3544 14275l0 1513c374,343 813,616 1251,856l2 2 0 -1041c-603,-377 -1041,-778 -1253,-1330z"/>
    </clipPath>
    <clipPath id="id10" style="clip-rule:nonzero">
     <path d="M9759 15514l0 1053 5 -2c430,-244 855,-525 1210,-873 13,-13 26,-26 39,-38l0 -2097c-36,900 -500,1458 -1254,1957z"/>
    </clipPath>
    <clipPath id="id11" style="clip-rule:nonzero">
     <path d="M4780 15595l0 1041 15 8c310,171 620,323 905,471l342 0 0 -832c-64,-33 -129,-65 -196,-100 -394,-201 -752,-391 -1066,-588z"/>
    </clipPath>
    <clipPath id="id12" style="clip-rule:nonzero">
     <path d="M8515 16211l0 904 201 0c329,-171 690,-348 1048,-551l13 -6 0 -1055c-346,231 -753,448 -1208,680l-54 28z"/>
    </clipPath>
    <clipPath id="id13" style="clip-rule:nonzero">
     <path d="M6025 16275l0 840 2507 0 0 -912c-154,78 -303,154 -443,230 -357,191 -646,407 -882,627 -234,-220 -524,-436 -881,-627 -96,-52 -197,-105 -301,-158z"/>
    </clipPath>
    <clipPath id="id14" style="clip-rule:nonzero">
     <path d="M8799 3390l724 0c-286,-172 -606,-341 -954,-519 -167,-85 -329,-168 -480,-250 -273,-146 -507,-307 -707,-473l-348 0c-48,39 -96,78 -148,117 13,138 21,278 24,419 84,-56 165,-115 243,-176l0 0c16,-12 35,-18 55,-18 19,0 39,6 54,18 202,157 422,299 656,425l0 0c153,82 316,165 486,252 138,71 270,139 395,205z"/>
    </clipPath>
    <clipPath id="id15" style="clip-rule:nonzero">
     <path d="M10404 4635l406 0c-247,-514 -704,-895 -1315,-1261l-727 0c269,143 509,278 721,413 302,193 546,386 732,600 69,80 130,162 183,248z"/>
    </clipPath>
    <clipPath id="id16" style="clip-rule:nonzero">
     <path d="M11842 7125l280 0 0 -228c-187,-165 -394,-315 -618,-446l-488 -284 -1 -559c0,-383 -75,-706 -214,-989l-408 0c48,74 88,152 122,232 95,224 141,473 141,758l2 760 663 387c188,110 362,233 521,369z"/>
    </clipPath>
    <clipPath id="id17" style="clip-rule:nonzero">
     <path d="M12105 6882l0 492c166,176 310,367 431,569 284,477 439,1017 439,1584 0,807 -315,1564 -870,2152l0 494c780,-679 1229,-1627 1229,-2646 0,-1018 -449,-1966 -1229,-2645z"/>
    </clipPath>
    <clipPath id="id18" style="clip-rule:nonzero">
     <path d="M12122 7393l0 -285 -300 0c107,90 207,185 300,285z"/>
    </clipPath>
    <clipPath id="id19" style="clip-rule:nonzero">
     <path d="M2308 12170l0 -494c-165,-174 -308,-363 -428,-564 -284,-476 -439,-1019 -439,-1585 0,-342 57,-678 165,-995 -127,12 -254,19 -383,22 -93,312 -141,639 -141,973 0,1017 448,1965 1226,2643z"/>
    </clipPath>
    <clipPath id="id20" style="clip-rule:nonzero">
     <path d="M2291 11658l0 497c188,166 395,317 621,449l488 284 0 558c1,303 47,568 135,807l0 -1697 -440 -258c-306,-178 -576,-394 -804,-640z"/>
    </clipPath>
    <clipPath id="id21" style="clip-rule:nonzero">
     <path d="M10877 12557l0 1703c90,-239 138,-508 138,-814l1 -558 487 -284c225,-131 432,-282 619,-447l0 -496c-228,244 -496,460 -801,637l-444 259z"/>
    </clipPath>
    <clipPath id="id22" style="clip-rule:nonzero">
     <path d="M3518 12546l0 1658c198,579 635,993 1245,1380l0 -425c-228,-158 -417,-317 -569,-492 -124,-144 -222,-297 -294,-464 -94,-224 -141,-473 -141,-757l-1 -761 -240 -139z"/>
    </clipPath>
    <clipPath id="id23" style="clip-rule:nonzero">
     <path d="M9649 15161l0 425c609,-386 1046,-799 1245,-1373l0 -1666 -237 138 -1 761c0,213 -26,406 -79,584 -53,178 -133,340 -240,490 -167,234 -396,440 -688,641z"/>
    </clipPath>
    <clipPath id="id24" style="clip-rule:nonzero">
     <path d="M4746 15147l0 426c322,205 691,402 1100,611 49,24 97,49 145,74l0 -400c-413,-211 -767,-401 -1064,-591 -63,-40 -123,-80 -181,-120z"/>
    </clipPath>
    <clipPath id="id25" style="clip-rule:nonzero">
     <path d="M8422 15860l0 399c48,-25 97,-50 147,-75 408,-209 777,-405 1097,-609l0 -426c-87,61 -181,122 -280,183 -276,169 -596,340 -964,528z"/>
    </clipPath>
    <clipPath id="id26" style="clip-rule:nonzero">
     <path d="M5974 15850l0 399c122,62 240,123 353,184 356,191 645,407 881,627l0 0c235,-220 525,-436 881,-627 111,-60 229,-121 350,-183l0 -399 -35 18c-170,87 -333,170 -486,253 -235,125 -454,267 -656,424 -16,12 -35,18 -54,18 -19,0 -39,-6 -55,-18 -202,-157 -421,-299 -655,-424 -153,-82 -317,-166 -487,-253l-37 -19z"/>
    </clipPath>
    <clipPath id="id27" style="clip-rule:nonzero">
     <path d="M7208 16566c-20,0 -39,-8 -56,-20 -200,-156 -420,-300 -653,-425 -154,-80 -318,-164 -489,-252 -420,-216 -780,-409 -1082,-601 -302,-192 -548,-385 -735,-601 -122,-144 -220,-297 -292,-465 -95,-224 -141,-473 -141,-757l0 -761 -666 -385c-515,-301 -929,-709 -1214,-1186 -286,-477 -440,-1022 -440,-1587 0,-340 59,-677 167,-993 63,-4 128,-12 194,-20 -121,320 -184,661 -184,1013 0,537 145,1046 414,1499 269,449 662,837 1154,1122l706 412c26,16 43,44 43,76l3 810c0,200 23,376 72,537 46,160 118,304 213,436 194,273 489,513 899,766 276,168 597,340 971,529 171,88 335,172 489,256 223,120 433,253 627,397 194,-144 404,-277 623,-397 158,-84 322,-168 493,-256 420,-213 777,-405 1069,-593 292,-185 525,-369 696,-565 111,-132 200,-269 262,-421 85,-196 128,-421 128,-689l3 -810c0,-32 17,-60 43,-76l705 -412c493,-285 883,-673 1152,-1122 269,-453 417,-962 417,-1499 0,-533 -148,-1045 -417,-1494 -269,-449 -659,-838 -1152,-1126l-705 -413c-26,-16 -43,-44 -43,-72l-3 -813c0,-197 -23,-373 -72,-533 -46,-160 -118,-305 -213,-441 -194,-272 -489,-513 -903,-765 -272,-165 -593,-337 -967,-529 -171,-88 -335,-172 -489,-253l0 0c-223,-120 -433,-252 -627,-400 -95,72 -194,140 -299,204 4,-28 4,-56 4,-84 0,-40 0,-84 -4,-124 86,-56 164,-112 243,-177l0 0c17,-12 36,-16 56,-16 20,0 39,4 56,16 200,161 420,301 653,425l0 0c154,84 318,168 489,253 420,216 780,408 1082,605 302,192 548,384 732,597 125,144 223,296 295,464 95,225 141,473 141,758l0 761 666 389c515,300 929,709 1214,1186 282,476 440,1017 440,1582 0,1134 -620,2172 -1654,2773l-666 385 0 761c0,212 -26,409 -78,585 -53,176 -135,340 -240,489 -216,300 -531,557 -951,813 -283,172 -607,345 -981,537 -171,88 -335,172 -489,252 -233,125 -453,269 -653,425 -17,12 -36,20 -56,20zm0 -13987l-56 68 0 0 56 -68 0 0z"/>
    </clipPath>
    <clipPath id="id28">
     <path d="M1069 8555c-261,0 -518,-17 -769,-50 106,-431 276,-837 501,-1210 83,-136 172,-268 268,-395l0 1655zm5804 -6408l-1581 0c210,-107 412,-209 601,-310 341,-182 602,-391 800,-598 84,295 144,598 180,908l0 0z"/>
    </clipPath>
    <clipPath id="id29">
     <path d="M1084 8555c-5,0 -10,0 -15,0l0 -1655c371,-486 841,-902 1382,-1219 28,-14 44,-44 44,-75 0,-572 130,-1046 341,-1447 161,-302 368,-565 605,-796 355,-348 781,-629 1209,-873 216,-122 432,-235 643,-343l1580 0c5,41 10,79 13,117 -165,126 -350,246 -559,357 -152,82 -313,164 -480,250 -1476,753 -2445,1350 -2446,2737l-2 560 -486 282c-843,492 -1435,1241 -1690,2103 -47,2 -93,2 -139,2l0 0z"/>
    </clipPath>
    <clipPath id="id30">
     <path d="M1222 8553c256,-862 848,-1611 1690,-2101l488 -285 0 -558c3,-1386 969,-1984 2446,-2739 167,-84 329,-166 481,-248 209,-113 393,-233 559,-358 12,139 22,279 24,420 -131,90 -269,172 -411,249 -154,82 -318,166 -488,252 -375,191 -701,367 -981,538 -421,258 -738,510 -952,811 -107,150 -186,313 -240,490 -53,179 -79,372 -79,585l-2 760 -662 387c-516,302 -931,710 -1216,1187 -111,187 -202,385 -273,591 -127,11 -255,18 -384,19l0 0z"/>
    </clipPath>
    <clipPath id="id31">
     <path d="M1606 8534c70,-207 162,-403 274,-591 285,-477 698,-886 1214,-1187l665 -387 0 -761c1,-213 26,-406 79,-584 54,-178 133,-339 241,-490 214,-300 531,-554 950,-811 281,-173 607,-345 982,-538 170,-86 334,-170 487,-252 144,-77 281,-160 413,-249 0,41 0,81 0,123 0,28 0,57 0,86 -106,68 -216,132 -329,193 -155,83 -320,167 -490,255 -420,213 -776,404 -1070,592 -293,188 -524,371 -694,567 -113,131 -200,269 -265,418 -84,200 -127,425 -127,692l-1 809c0,30 -17,59 -43,75l-708 412c-491,287 -883,674 -1153,1126 -91,153 -168,314 -231,481 -64,7 -128,14 -194,21l0 0z"/>
    </clipPath>
  <linearGradient id="id32" gradientUnits="userSpaceOnUse" x1="2075.65" y1="4463.56" x2="12339.8" y2="14590.8">
   <stop offset="0" style="stop-opacity:1; stop-color:#D3BB6A"/>
   <stop offset="0.65098" style="stop-opacity:1; stop-color:#F8EEB4"/>
   <stop offset="1" style="stop-opacity:1; stop-color:#A47D2A"/>
  </linearGradient>
  <linearGradient id="id33" gradientUnits="userSpaceOnUse" x1="10348.4" y1="12341.1" x2="14926.2" y2="8609.17">
   <stop offset="0" style="stop-opacity:1; stop-color:#FBF295"/>
   <stop offset="0.239216" style="stop-opacity:1; stop-color:#F9DD5F"/>
   <stop offset="0.490196" style="stop-opacity:1; stop-color:#A07229"/>
   <stop offset="0.690196" style="stop-opacity:1; stop-color:#F9E975"/>
   <stop offset="0.768627" style="stop-opacity:1; stop-color:#FCF5B0"/>
   <stop offset="0.831373" style="stop-opacity:1; stop-color:#F9E975"/>
   <stop offset="1" style="stop-opacity:1; stop-color:#A96528"/>
  </linearGradient>
  <linearGradient id="id34" gradientUnits="userSpaceOnUse" xlink:href="#id33" x1="9276.31" y1="6945.38" x2="13672.2" y2="11201.7">
  </linearGradient>
 </defs>
 <g id="Katman_x0020_1">
  <metadata id="CorelCorpID_0Corel-Layer"/>
  <g id="_1675768562784">
   <path class="fil0" d="M12591 10146c0,4 -3,8 -8,9 -4,0 -8,-3 -8,-7 0,-5 3,-8 7,-9 4,0 8,3 9,7z"/>
   <path class="fil1" d="M13799 9535c1,-4 -2,-8 -6,-9 -4,0 -8,2 -9,7 -1,4 2,8 6,9 5,0 9,-2 9,-7z"/>
   <path class="fil2" d="M1082 9527c0,-1258 684,-2408 1830,-3076l487 -284 1 -559c2,-1386 970,-1984 2446,-2737 168,-86 329,-168 481,-249 356,-192 646,-408 881,-627 235,219 524,435 881,627 152,81 313,163 480,249 1476,753 2444,1351 2446,2737l1 559 487 284c1146,668 1831,1818 1831,3076 0,1258 -685,2408 -1831,3076l-487 284 -1 559c-2,1387 -970,1984 -2446,2738 -167,85 -328,167 -480,249 -357,191 -646,407 -881,627 -235,-220 -525,-436 -881,-627 -152,-82 -313,-164 -481,-249 -1476,-754 -2444,-1351 -2446,-2738l-1 -559 -487 -284c-1146,-668 -1830,-1818 -1830,-3076z"/>
   <g style="clip-path:url(#id0)">
    <image x="150" y="440" width="14115" height="18173" xlink:href="2504-day-55fabed9-f904-4a6e-90aa-36ee905a2c1a_Images\2504-day-55fabed9-f904-4a6e-90aa-36ee905a2c1a_ImgID1.png"/>
   </g>
   <g style="clip-path:url(#id1)">
    <image x="6024" y="2128" width="4993" height="1264" xlink:href="2504-day-55fabed9-f904-4a6e-90aa-36ee905a2c1a_Images\2504-day-55fabed9-f904-4a6e-90aa-36ee905a2c1a_ImgID2.png"/>
   </g>
   <g style="clip-path:url(#id2)">
    <image x="8511" y="3370" width="3747" height="1275" xlink:href="2504-day-55fabed9-f904-4a6e-90aa-36ee905a2c1a_Images\2504-day-55fabed9-f904-4a6e-90aa-36ee905a2c1a_ImgID3.png"/>
   </g>
   <g style="clip-path:url(#id3)">
    <image x="9756" y="4623" width="3747" height="1268" xlink:href="2504-day-55fabed9-f904-4a6e-90aa-36ee905a2c1a_Images\2504-day-55fabed9-f904-4a6e-90aa-36ee905a2c1a_ImgID4.png"/>
   </g>
   <g style="clip-path:url(#id4)">
    <image x="10995" y="5869" width="2509" height="1275" xlink:href="2504-day-55fabed9-f904-4a6e-90aa-36ee905a2c1a_Images\2504-day-55fabed9-f904-4a6e-90aa-36ee905a2c1a_ImgID5.png"/>
   </g>
   <g style="clip-path:url(#id5)">
    <image x="12240" y="7122" width="1264" height="6262" xlink:href="2504-day-55fabed9-f904-4a6e-90aa-36ee905a2c1a_Images\2504-day-55fabed9-f904-4a6e-90aa-36ee905a2c1a_ImgID6.png"/>
   </g>
   <g style="clip-path:url(#id6)">
    <image x="1053" y="8369" width="1264" height="5016" xlink:href="2504-day-55fabed9-f904-4a6e-90aa-36ee905a2c1a_Images\2504-day-55fabed9-f904-4a6e-90aa-36ee905a2c1a_ImgID7.png"/>
   </g>
   <g style="clip-path:url(#id7)">
    <image x="10995" y="10868" width="1264" height="5016" xlink:href="2504-day-55fabed9-f904-4a6e-90aa-36ee905a2c1a_Images\2504-day-55fabed9-f904-4a6e-90aa-36ee905a2c1a_ImgID8.png"/>
   </g>
   <g style="clip-path:url(#id8)">
    <image x="2295" y="12121" width="1267" height="3763" xlink:href="2504-day-55fabed9-f904-4a6e-90aa-36ee905a2c1a_Images\2504-day-55fabed9-f904-4a6e-90aa-36ee905a2c1a_ImgID9.png"/>
   </g>
   <g style="clip-path:url(#id9)">
    <image x="3541" y="13363" width="1260" height="3774" xlink:href="2504-day-55fabed9-f904-4a6e-90aa-36ee905a2c1a_Images\2504-day-55fabed9-f904-4a6e-90aa-36ee905a2c1a_ImgID10.png"/>
   </g>
   <g style="clip-path:url(#id10)">
    <image x="9756" y="13363" width="1260" height="3774" xlink:href="2504-day-55fabed9-f904-4a6e-90aa-36ee905a2c1a_Images\2504-day-55fabed9-f904-4a6e-90aa-36ee905a2c1a_ImgID11.png"/>
   </g>
   <g style="clip-path:url(#id11)">
    <image x="4779" y="14616" width="1264" height="2521" xlink:href="2504-day-55fabed9-f904-4a6e-90aa-36ee905a2c1a_Images\2504-day-55fabed9-f904-4a6e-90aa-36ee905a2c1a_ImgID12.png"/>
   </g>
   <g style="clip-path:url(#id12)">
    <image x="8511" y="14616" width="1267" height="2521" xlink:href="2504-day-55fabed9-f904-4a6e-90aa-36ee905a2c1a_Images\2504-day-55fabed9-f904-4a6e-90aa-36ee905a2c1a_ImgID13.png"/>
   </g>
   <g style="clip-path:url(#id13)">
    <image x="6024" y="15863" width="2509" height="1275" xlink:href="2504-day-55fabed9-f904-4a6e-90aa-36ee905a2c1a_Images\2504-day-55fabed9-f904-4a6e-90aa-36ee905a2c1a_ImgID14.png"/>
   </g>
   <g style="clip-path:url(#id14)">
    <image x="5971" y="2128" width="3698" height="1264" xlink:href="2504-day-55fabed9-f904-4a6e-90aa-36ee905a2c1a_Images\2504-day-55fabed9-f904-4a6e-90aa-36ee905a2c1a_ImgID15.png"/>
   </g>
   <g style="clip-path:url(#id15)">
    <image x="8419" y="3370" width="2477" height="1268" xlink:href="2504-day-55fabed9-f904-4a6e-90aa-36ee905a2c1a_Images\2504-day-55fabed9-f904-4a6e-90aa-36ee905a2c1a_ImgID16.png"/>
   </g>
   <g style="clip-path:url(#id16)">
    <image x="9647" y="4616" width="2477" height="2510" xlink:href="2504-day-55fabed9-f904-4a6e-90aa-36ee905a2c1a_Images\2504-day-55fabed9-f904-4a6e-90aa-36ee905a2c1a_ImgID17.png"/>
   </g>
   <g style="clip-path:url(#id17)">
    <image x="12102" y="5862" width="1250" height="7481" xlink:href="2504-day-55fabed9-f904-4a6e-90aa-36ee905a2c1a_Images\2504-day-55fabed9-f904-4a6e-90aa-36ee905a2c1a_ImgID18.png"/>
   </g>
   <g style="clip-path:url(#id18)">
    <image x="10875" y="7105" width="1250" height="1268" xlink:href="2504-day-55fabed9-f904-4a6e-90aa-36ee905a2c1a_Images\2504-day-55fabed9-f904-4a6e-90aa-36ee905a2c1a_ImgID19.png"/>
   </g>
   <g style="clip-path:url(#id19)">
    <image x="1060" y="8351" width="1250" height="4992" xlink:href="2504-day-55fabed9-f904-4a6e-90aa-36ee905a2c1a_Images\2504-day-55fabed9-f904-4a6e-90aa-36ee905a2c1a_ImgID20.png"/>
   </g>
   <g style="clip-path:url(#id20)">
    <image x="2288" y="10833" width="1250" height="3756" xlink:href="2504-day-55fabed9-f904-4a6e-90aa-36ee905a2c1a_Images\2504-day-55fabed9-f904-4a6e-90aa-36ee905a2c1a_ImgID21.png"/>
   </g>
   <g style="clip-path:url(#id21)">
    <image x="10875" y="10833" width="1250" height="3756" xlink:href="2504-day-55fabed9-f904-4a6e-90aa-36ee905a2c1a_Images\2504-day-55fabed9-f904-4a6e-90aa-36ee905a2c1a_ImgID22.png"/>
   </g>
   <g style="clip-path:url(#id22)">
    <image x="3516" y="12079" width="1250" height="3753" xlink:href="2504-day-55fabed9-f904-4a6e-90aa-36ee905a2c1a_Images\2504-day-55fabed9-f904-4a6e-90aa-36ee905a2c1a_ImgID23.png"/>
   </g>
   <g style="clip-path:url(#id23)">
    <image x="9647" y="12079" width="1250" height="3753" xlink:href="2504-day-55fabed9-f904-4a6e-90aa-36ee905a2c1a_Images\2504-day-55fabed9-f904-4a6e-90aa-36ee905a2c1a_ImgID24.png"/>
   </g>
   <g style="clip-path:url(#id24)">
    <image x="4743" y="14568" width="1250" height="2510" xlink:href="2504-day-55fabed9-f904-4a6e-90aa-36ee905a2c1a_Images\2504-day-55fabed9-f904-4a6e-90aa-36ee905a2c1a_ImgID25.png"/>
   </g>
   <g style="clip-path:url(#id25)">
    <image x="8419" y="14568" width="1250" height="2510" xlink:href="2504-day-55fabed9-f904-4a6e-90aa-36ee905a2c1a_Images\2504-day-55fabed9-f904-4a6e-90aa-36ee905a2c1a_ImgID26.png"/>
   </g>
   <g style="clip-path:url(#id26)">
    <image x="5971" y="15814" width="2470" height="1264" xlink:href="2504-day-55fabed9-f904-4a6e-90aa-36ee905a2c1a_Images\2504-day-55fabed9-f904-4a6e-90aa-36ee905a2c1a_ImgID27.png"/>
   </g>
   <g style="clip-path:url(#id27)">
    <image x="1420" y="2458" width="11575" height="14136" xlink:href="2504-day-55fabed9-f904-4a6e-90aa-36ee905a2c1a_Images\2504-day-55fabed9-f904-4a6e-90aa-36ee905a2c1a_ImgID28.png"/>
   </g>
   <g style="clip-path:url(#id28)">
    <image x="256" y="1205" width="6672" height="7383" xlink:href="2504-day-55fabed9-f904-4a6e-90aa-36ee905a2c1a_Images\2504-day-55fabed9-f904-4a6e-90aa-36ee905a2c1a_ImgID29.png"/>
   </g>
   <g style="clip-path:url(#id29)">
    <image x="1060" y="2135" width="5839" height="6430" xlink:href="2504-day-55fabed9-f904-4a6e-90aa-36ee905a2c1a_Images\2504-day-55fabed9-f904-4a6e-90aa-36ee905a2c1a_ImgID30.png"/>
   </g>
   <g style="clip-path:url(#id30)">
    <image x="1212" y="2253" width="5712" height="6311" xlink:href="2504-day-55fabed9-f904-4a6e-90aa-36ee905a2c1a_Images\2504-day-55fabed9-f904-4a6e-90aa-36ee905a2c1a_ImgID31.png"/>
   </g>
   <g style="clip-path:url(#id31)">
    <image x="1561" y="2632" width="5402" height="5921" xlink:href="2504-day-55fabed9-f904-4a6e-90aa-36ee905a2c1a_Images\2504-day-55fabed9-f904-4a6e-90aa-36ee905a2c1a_ImgID32.png"/>
   </g>
   <path class="fil3" d="M7208 18927c-42,0 -78,-28 -87,-69l0 -1 -1 -6c-2,-6 -4,-16 -8,-28 -7,-24 -19,-61 -36,-107 -35,-91 -94,-222 -188,-371 -188,-298 -516,-673 -1078,-975 -155,-83 -321,-167 -493,-255 -243,-124 -498,-255 -754,-400 -437,-248 -874,-536 -1246,-900 -248,-242 -467,-519 -636,-839 -220,-415 -354,-902 -362,-1479 -478,-285 -900,-644 -1250,-1061 -154,-185 -295,-381 -419,-587 -413,-684 -650,-1477 -650,-2322 0,-360 43,-712 125,-1049 13,2 26,4 39,6 -13,-2 -26,-4 -38,-6 109,-454 287,-881 524,-1273 124,-206 264,-402 420,-587 350,-417 772,-776 1249,-1061 6,-428 81,-806 211,-1145 133,-349 323,-653 550,-919 452,-531 1048,-917 1628,-1236 49,-25 96,-51 145,-76 2,-2 5,-4 7,-4 19,-11 36,-20 53,-28 317,-168 623,-319 896,-464 366,-198 631,-423 824,-640l0 1c101,-112 181,-222 246,-323 189,-296 241,-520 242,-527 9,-40 45,-69 87,-69 41,0 77,29 86,69l0 1 2 7c1,6 4,15 7,27 8,25 19,61 37,107 35,92 94,222 188,371 188,298 515,673 1078,975 272,146 580,297 896,464 116,61 233,125 350,191 437,248 875,536 1247,900 248,243 467,519 636,839 219,415 354,903 362,1479 543,325 1016,746 1390,1239 100,131 193,268 278,409 273,451 469,950 570,1479 7,36 14,72 20,108 40,239 60,485 60,735 1,845 -236,1638 -650,2322 -85,141 -178,278 -278,410 -374,492 -847,914 -1390,1238 -6,428 -82,808 -211,1144 -133,350 -323,654 -550,920 -453,533 -1048,916 -1629,1235 -207,114 -412,219 -609,319 -172,88 -338,172 -492,255 -554,298 -880,665 -1069,961 -190,296 -242,521 -243,527 -9,41 -45,69 -86,69zm-6967 -10431c20,3 39,5 59,8 -81,329 -124,671 -124,1023 0,813 228,1574 626,2233 82,136 171,268 267,394 370,487 840,902 1383,1218 26,16 43,44 43,75 0,430 73,803 199,1133 126,330 305,616 520,869 431,507 1007,881 1581,1195 310,171 620,323 905,471 66,34 131,68 194,102 592,318 942,717 1144,1036 76,121 131,231 170,321 39,-90 94,-200 170,-321 201,-319 552,-718 1144,-1036 63,-34 128,-68 194,-102 329,-171 690,-348 1048,-551 430,-243 855,-524 1211,-872 237,-233 444,-495 603,-796 213,-403 342,-876 343,-1449 0,-31 16,-59 43,-75 614,-357 1135,-842 1523,-1414 44,-65 86,-131 127,-198 398,-659 625,-1420 625,-2233 0,-812 -227,-1574 -625,-2233 -41,-67 -83,-133 -127,-197 -388,-573 -909,-1057 -1523,-1415 -27,-16 -43,-44 -43,-75 -1,-429 -74,-803 -200,-1133 -126,-329 -305,-616 -520,-869 -430,-506 -1006,-881 -1580,-1195 -167,-92 -334,-178 -497,-262 -210,-107 -414,-210 -602,-311 -592,-318 -943,-716 -1144,-1036 -76,-121 -131,-231 -170,-321 -39,90 -94,200 -170,321 -86,136 -199,286 -345,438l0 0c-199,206 -460,417 -800,597 -188,102 -390,204 -601,313 -210,106 -426,219 -640,340 -430,245 -855,526 -1212,875 -236,231 -443,493 -602,795 -213,402 -342,874 -342,1449 0,30 -17,57 -45,74 -541,315 -1011,730 -1381,1217 -97,128 -186,260 -268,396 -226,372 -397,778 -502,1208 -19,-2 -39,-4 -59,-7zm6425 -7348c-10,-33 -21,-66 -32,-99 11,33 21,66 32,99zm-4259 4460l0 0 0 0zm4714 13250l0 0zm1401 -1641l0 0zm-1401 -17021l0 0zm173 0l0 0zm1312 17174l0 0zm-1312 1488l0 0z"/>
  </g>
 </g>
</svg>
